<?xml version="1.0" encoding="UTF-8" standalone="no"?>
<svg xmlns="http://www.w3.org/2000/svg" width="1455" height="583" viewBox="0 0 1455 583">
<metadata>Vectorized Mumma's Bite logo; transparent background.</metadata>
<path d="M 1412.0,105.0 L 1382.0,99.0 L 1344.0,105.0 L 1315.0,122.0 L 1300.0,139.0 L 1293.0,156.0 L 1292.0,173.0 L 1296.0,187.0 L 1302.0,196.0 L 1314.0,207.0 L 1367.0,226.0 L 1377.0,234.0 L 1376.0,243.0 L 1366.0,250.0 L 1348.0,247.0 L 1329.0,233.0 L 1319.0,229.0 L 1302.0,230.0 L 1291.0,237.0 L 1284.0,251.0 L 1285.0,268.0 L 1290.0,277.0 L 1307.0,291.0 L 1344.0,302.0 L 1371.0,302.0 L 1395.0,297.0 L 1423.0,282.0 L 1435.0,270.0 L 1447.0,250.0 L 1447.0,225.0 L 1436.0,203.0 L 1420.0,191.0 L 1380.0,177.0 L 1366.0,168.0 L 1366.0,161.0 L 1374.0,156.0 L 1386.0,158.0 L 1406.0,168.0 L 1422.0,167.0 L 1435.0,158.0 L 1440.0,147.0 L 1438.0,129.0 L 1427.0,114.0 Z M 1326.0,274.0 L 1330.0,273.0 L 1331.0,275.0 L 1327.0,276.0 Z M 1349.0,273.0 L 1352.0,272.0 L 1354.0,275.0 L 1351.0,276.0 Z M 1340.0,270.0 L 1344.0,269.0 L 1345.0,272.0 L 1342.0,273.0 Z M 1315.0,265.0 L 1317.0,264.0 L 1321.0,268.0 L 1317.0,269.0 Z M 1350.0,269.0 L 1357.0,263.0 L 1366.0,265.0 L 1363.0,269.0 L 1363.0,273.0 L 1360.0,271.0 L 1361.0,267.0 L 1352.0,271.0 Z M 1370.0,262.0 L 1375.0,261.0 L 1376.0,264.0 L 1372.0,266.0 Z M 1328.0,261.0 L 1331.0,260.0 L 1334.0,265.0 L 1330.0,265.0 Z M 1323.0,263.0 L 1324.0,260.0 L 1327.0,261.0 L 1325.0,264.0 Z M 1343.0,264.0 L 1345.0,259.0 L 1352.0,261.0 L 1346.0,265.0 Z M 1332.0,261.0 L 1333.0,258.0 L 1345.0,258.0 L 1343.0,261.0 Z M 1318.0,256.0 L 1322.0,255.0 L 1323.0,258.0 L 1321.0,259.0 Z M 1391.0,257.0 L 1393.0,254.0 L 1398.0,255.0 L 1395.0,259.0 Z M 1307.0,254.0 L 1311.0,253.0 L 1312.0,255.0 L 1309.0,257.0 Z M 1325.0,251.0 L 1327.0,249.0 L 1331.0,249.0 L 1335.0,255.0 L 1330.0,256.0 Z M 1389.0,248.0 L 1392.0,246.0 L 1394.0,247.0 L 1393.0,250.0 L 1390.0,250.0 Z M 1412.0,245.0 L 1414.0,246.0 L 1413.0,251.0 L 1411.0,250.0 Z M 1314.0,244.0 L 1316.0,242.0 L 1328.0,245.0 L 1329.0,248.0 L 1320.0,249.0 L 1315.0,247.0 Z M 1315.0,242.0 L 1313.0,246.0 L 1304.0,248.0 L 1300.0,253.0 L 1297.0,252.0 L 1299.0,250.0 L 1298.0,247.0 L 1302.0,243.0 L 1311.0,239.0 Z M 1405.0,238.0 L 1406.0,244.0 L 1402.0,246.0 L 1401.0,243.0 Z M 1407.0,239.0 L 1408.0,236.0 L 1411.0,237.0 L 1409.0,240.0 Z M 1418.0,234.0 L 1422.0,233.0 L 1423.0,236.0 L 1420.0,238.0 Z M 1407.0,233.0 L 1410.0,232.0 L 1411.0,235.0 L 1408.0,236.0 Z M 1398.0,227.0 L 1403.0,226.0 L 1404.0,228.0 L 1399.0,229.0 Z M 1422.0,218.0 L 1427.0,217.0 L 1430.0,222.0 L 1426.0,223.0 L 1422.0,220.0 Z M 1412.0,217.0 L 1416.0,219.0 L 1413.0,229.0 L 1410.0,227.0 L 1410.0,219.0 Z M 1413.0,211.0 L 1416.0,213.0 L 1415.0,217.0 L 1411.0,214.0 Z M 1402.0,209.0 L 1406.0,211.0 L 1406.0,215.0 L 1404.0,217.0 L 1402.0,216.0 Z M 1382.0,205.0 L 1385.0,204.0 L 1387.0,207.0 L 1384.0,208.0 Z M 1413.0,204.0 L 1415.0,203.0 L 1420.0,205.0 L 1425.0,212.0 L 1423.0,214.0 L 1417.0,212.0 Z M 1400.0,202.0 L 1403.0,204.0 L 1402.0,209.0 L 1398.0,207.0 Z M 1391.0,205.0 L 1393.0,202.0 L 1396.0,203.0 L 1395.0,207.0 L 1392.0,207.0 Z M 1376.0,202.0 L 1380.0,201.0 L 1383.0,204.0 L 1378.0,205.0 Z M 1408.0,197.0 L 1411.0,199.0 L 1409.0,203.0 L 1413.0,206.0 L 1410.0,209.0 L 1405.0,206.0 L 1405.0,200.0 Z M 1379.0,197.0 L 1381.0,196.0 L 1384.0,199.0 L 1380.0,200.0 Z M 1375.0,197.0 L 1378.0,196.0 L 1379.0,199.0 L 1376.0,201.0 Z M 1363.0,197.0 L 1366.0,196.0 L 1367.0,199.0 L 1364.0,200.0 Z M 1400.0,196.0 L 1400.0,198.0 L 1396.0,199.0 L 1394.0,202.0 L 1388.0,199.0 L 1390.0,196.0 Z M 1343.0,189.0 L 1346.0,191.0 L 1345.0,195.0 L 1342.0,193.0 Z M 1379.0,189.0 L 1381.0,188.0 L 1383.0,191.0 L 1380.0,192.0 Z M 1377.0,188.0 L 1378.0,190.0 L 1374.0,193.0 L 1373.0,191.0 Z M 1358.0,191.0 L 1359.0,189.0 L 1363.0,188.0 L 1367.0,189.0 L 1365.0,192.0 Z M 1370.0,186.0 L 1372.0,185.0 L 1374.0,188.0 L 1371.0,189.0 Z M 1356.0,186.0 L 1359.0,185.0 L 1360.0,188.0 L 1358.0,189.0 Z M 1337.0,184.0 L 1338.0,186.0 L 1335.0,190.0 L 1334.0,186.0 Z M 1363.0,183.0 L 1365.0,182.0 L 1368.0,186.0 L 1365.0,187.0 Z M 1350.0,182.0 L 1354.0,183.0 L 1354.0,188.0 L 1352.0,190.0 L 1349.0,188.0 Z M 1324.0,180.0 L 1328.0,179.0 L 1330.0,182.0 L 1327.0,183.0 Z M 1355.0,179.0 L 1357.0,178.0 L 1361.0,181.0 L 1356.0,182.0 Z M 1335.0,177.0 L 1340.0,177.0 L 1346.0,182.0 L 1346.0,185.0 L 1344.0,186.0 L 1343.0,184.0 L 1339.0,186.0 Z M 1318.0,176.0 L 1322.0,173.0 L 1326.0,177.0 L 1319.0,178.0 Z M 1341.0,172.0 L 1344.0,171.0 L 1346.0,173.0 L 1350.0,173.0 L 1351.0,175.0 L 1345.0,177.0 Z M 1329.0,169.0 L 1333.0,171.0 L 1333.0,177.0 L 1329.0,175.0 Z M 1319.0,168.0 L 1321.0,169.0 L 1320.0,172.0 L 1317.0,171.0 Z M 1337.0,163.0 L 1341.0,162.0 L 1342.0,166.0 L 1338.0,168.0 Z M 1333.0,161.0 L 1334.0,164.0 L 1330.0,164.0 L 1331.0,168.0 L 1327.0,169.0 L 1325.0,167.0 L 1327.0,162.0 Z M 1322.0,156.0 L 1325.0,157.0 L 1323.0,161.0 L 1320.0,160.0 Z M 1326.0,153.0 L 1335.0,152.0 L 1336.0,155.0 L 1334.0,157.0 L 1328.0,157.0 Z M 1342.0,146.0 L 1344.0,150.0 L 1342.0,158.0 L 1337.0,161.0 L 1336.0,158.0 L 1339.0,153.0 L 1338.0,147.0 Z M 1325.0,147.0 L 1328.0,146.0 L 1329.0,150.0 L 1326.0,151.0 Z M 1318.0,145.0 L 1319.0,149.0 L 1315.0,150.0 L 1314.0,148.0 Z M 1351.0,142.0 L 1354.0,144.0 L 1352.0,147.0 L 1349.0,145.0 Z M 1342.0,142.0 L 1344.0,141.0 L 1348.0,145.0 L 1343.0,147.0 Z M 1327.0,138.0 L 1330.0,137.0 L 1331.0,140.0 L 1328.0,141.0 Z M 1362.0,137.0 L 1365.0,135.0 L 1367.0,138.0 L 1363.0,139.0 Z M 1359.0,136.0 L 1358.0,140.0 L 1351.0,140.0 L 1352.0,137.0 L 1356.0,135.0 Z M 1344.0,132.0 L 1347.0,133.0 L 1346.0,139.0 L 1342.0,136.0 Z M 1339.0,130.0 L 1340.0,132.0 L 1338.0,134.0 L 1338.0,139.0 L 1334.0,141.0 L 1334.0,134.0 Z M 1345.0,130.0 L 1350.0,128.0 L 1352.0,131.0 L 1349.0,133.0 Z M 1358.0,127.0 L 1360.0,126.0 L 1363.0,130.0 L 1360.0,131.0 Z M 1353.0,116.0 L 1382.0,109.0 L 1407.0,114.0 L 1423.0,127.0 L 1427.0,142.0 L 1425.0,143.0 L 1415.0,132.0 L 1398.0,123.0 L 1381.0,119.0 L 1354.0,119.0 Z M 316.0,142.0 L 293.0,114.0 L 279.0,105.0 L 256.0,98.0 L 231.0,98.0 L 217.0,102.0 L 198.0,113.0 L 185.0,127.0 L 166.0,109.0 L 143.0,100.0 L 126.0,99.0 L 109.0,103.0 L 97.0,109.0 L 85.0,121.0 L 77.0,111.0 L 62.0,101.0 L 54.0,99.0 L 34.0,101.0 L 18.0,112.0 L 9.0,131.0 L 9.0,271.0 L 16.0,287.0 L 26.0,296.0 L 42.0,301.0 L 62.0,297.0 L 75.0,285.0 L 81.0,267.0 L 81.0,185.0 L 85.0,176.0 L 92.0,169.0 L 109.0,166.0 L 122.0,174.0 L 127.0,186.0 L 126.0,262.0 L 132.0,284.0 L 149.0,298.0 L 166.0,300.0 L 180.0,296.0 L 192.0,286.0 L 200.0,267.0 L 201.0,182.0 L 213.0,168.0 L 230.0,166.0 L 243.0,174.0 L 248.0,185.0 L 248.0,270.0 L 252.0,282.0 L 258.0,290.0 L 270.0,298.0 L 286.0,300.0 L 298.0,297.0 L 311.0,287.0 L 319.0,270.0 L 319.0,219.0 L 322.0,206.0 L 320.0,203.0 L 322.0,199.0 L 320.0,198.0 L 322.0,195.0 L 320.0,194.0 L 322.0,189.0 L 320.0,172.0 L 322.0,168.0 L 319.0,168.0 L 314.0,144.0 Z M 34.0,271.0 L 38.0,270.0 L 39.0,274.0 L 35.0,274.0 Z M 275.0,269.0 L 277.0,270.0 L 276.0,273.0 L 273.0,272.0 Z M 50.0,264.0 L 51.0,268.0 L 47.0,271.0 L 46.0,268.0 Z M 37.0,260.0 L 39.0,259.0 L 45.0,266.0 L 42.0,267.0 Z M 30.0,258.0 L 33.0,257.0 L 35.0,260.0 L 31.0,261.0 Z M 48.0,258.0 L 50.0,256.0 L 53.0,257.0 L 52.0,260.0 L 49.0,260.0 Z M 42.0,257.0 L 45.0,256.0 L 48.0,260.0 L 44.0,261.0 Z M 277.0,254.0 L 279.0,253.0 L 282.0,258.0 L 279.0,259.0 Z M 174.0,253.0 L 176.0,252.0 L 178.0,255.0 L 175.0,256.0 Z M 157.0,251.0 L 159.0,250.0 L 161.0,254.0 L 159.0,255.0 Z M 293.0,249.0 L 294.0,251.0 L 288.0,256.0 L 287.0,252.0 Z M 39.0,248.0 L 42.0,249.0 L 41.0,254.0 L 38.0,252.0 Z M 35.0,247.0 L 37.0,248.0 L 37.0,253.0 L 34.0,252.0 Z M 298.0,248.0 L 299.0,245.0 L 302.0,246.0 L 300.0,249.0 Z M 48.0,244.0 L 53.0,247.0 L 53.0,253.0 L 46.0,248.0 Z M 40.0,245.0 L 43.0,244.0 L 45.0,247.0 L 42.0,249.0 Z M 277.0,242.0 L 278.0,246.0 L 275.0,248.0 L 274.0,246.0 Z M 52.0,241.0 L 54.0,240.0 L 56.0,243.0 L 53.0,245.0 Z M 30.0,242.0 L 33.0,240.0 L 35.0,241.0 L 34.0,244.0 L 31.0,244.0 Z M 278.0,239.0 L 281.0,238.0 L 282.0,242.0 L 280.0,243.0 Z M 164.0,238.0 L 166.0,236.0 L 169.0,237.0 L 168.0,240.0 L 165.0,240.0 Z M 295.0,234.0 L 298.0,235.0 L 296.0,240.0 L 294.0,239.0 Z M 176.0,234.0 L 179.0,236.0 L 177.0,240.0 L 174.0,238.0 Z M 154.0,235.0 L 157.0,234.0 L 159.0,237.0 L 155.0,238.0 Z M 53.0,235.0 L 56.0,234.0 L 57.0,237.0 L 54.0,238.0 Z M 33.0,232.0 L 35.0,233.0 L 34.0,237.0 L 31.0,235.0 Z M 160.0,231.0 L 162.0,230.0 L 165.0,234.0 L 162.0,235.0 Z M 52.0,233.0 L 53.0,230.0 L 56.0,231.0 L 54.0,234.0 Z M 285.0,228.0 L 285.0,235.0 L 281.0,238.0 L 280.0,235.0 L 282.0,230.0 Z M 171.0,231.0 L 172.0,228.0 L 175.0,229.0 L 173.0,232.0 Z M 40.0,228.0 L 44.0,231.0 L 43.0,235.0 L 40.0,234.0 Z M 150.0,226.0 L 152.0,227.0 L 151.0,232.0 L 149.0,231.0 Z M 57.0,227.0 L 60.0,226.0 L 61.0,230.0 L 59.0,231.0 Z M 284.0,225.0 L 288.0,224.0 L 289.0,226.0 L 285.0,227.0 Z M 35.0,226.0 L 38.0,224.0 L 40.0,225.0 L 39.0,228.0 L 36.0,228.0 Z M 51.0,224.0 L 54.0,223.0 L 56.0,226.0 L 52.0,227.0 Z M 169.0,222.0 L 172.0,221.0 L 174.0,225.0 L 171.0,227.0 Z M 46.0,221.0 L 49.0,222.0 L 47.0,226.0 L 45.0,225.0 Z M 277.0,221.0 L 279.0,220.0 L 281.0,223.0 L 278.0,224.0 Z M 42.0,222.0 L 43.0,219.0 L 46.0,220.0 L 44.0,223.0 Z M 150.0,217.0 L 154.0,222.0 L 152.0,225.0 L 148.0,220.0 Z M 35.0,217.0 L 36.0,220.0 L 31.0,223.0 L 30.0,220.0 Z M 153.0,217.0 L 155.0,215.0 L 159.0,216.0 L 158.0,219.0 L 154.0,219.0 Z M 168.0,213.0 L 169.0,218.0 L 164.0,220.0 L 163.0,218.0 Z M 45.0,213.0 L 48.0,214.0 L 46.0,217.0 L 43.0,216.0 Z M 25.0,212.0 L 29.0,211.0 L 30.0,214.0 L 27.0,215.0 Z M 293.0,210.0 L 298.0,214.0 L 301.0,214.0 L 297.0,223.0 L 294.0,220.0 L 296.0,218.0 L 294.0,217.0 L 295.0,214.0 L 292.0,212.0 Z M 50.0,210.0 L 52.0,210.0 L 56.0,215.0 L 56.0,222.0 L 53.0,220.0 L 52.0,215.0 L 49.0,212.0 Z M 165.0,211.0 L 169.0,209.0 L 171.0,212.0 L 166.0,213.0 Z M 273.0,212.0 L 286.0,207.0 L 288.0,210.0 L 284.0,212.0 L 290.0,216.0 L 289.0,218.0 L 285.0,218.0 L 288.0,222.0 L 285.0,223.0 L 281.0,220.0 L 281.0,217.0 L 284.0,215.0 L 280.0,213.0 L 274.0,214.0 Z M 290.0,207.0 L 294.0,206.0 L 295.0,209.0 L 292.0,210.0 Z M 29.0,207.0 L 33.0,206.0 L 34.0,209.0 L 30.0,210.0 Z M 37.0,205.0 L 40.0,206.0 L 40.0,218.0 L 38.0,220.0 L 36.0,219.0 L 35.0,215.0 L 33.0,217.0 L 31.0,214.0 L 33.0,211.0 L 37.0,211.0 L 35.0,209.0 Z M 167.0,205.0 L 171.0,204.0 L 172.0,206.0 L 168.0,207.0 Z M 284.0,204.0 L 290.0,204.0 L 291.0,206.0 L 287.0,208.0 Z M 151.0,202.0 L 155.0,203.0 L 155.0,208.0 L 153.0,210.0 L 151.0,209.0 Z M 278.0,201.0 L 281.0,202.0 L 280.0,207.0 L 276.0,205.0 Z M 164.0,200.0 L 166.0,204.0 L 163.0,207.0 L 163.0,211.0 L 160.0,213.0 L 157.0,210.0 L 161.0,206.0 L 161.0,201.0 Z M 33.0,200.0 L 37.0,198.0 L 42.0,202.0 L 40.0,204.0 L 35.0,204.0 Z M 55.0,197.0 L 57.0,207.0 L 53.0,210.0 L 52.0,200.0 Z M 172.0,197.0 L 174.0,196.0 L 176.0,200.0 L 174.0,201.0 Z M 30.0,196.0 L 33.0,195.0 L 34.0,198.0 L 31.0,200.0 Z M 279.0,195.0 L 283.0,194.0 L 285.0,197.0 L 281.0,198.0 Z M 155.0,197.0 L 156.0,193.0 L 162.0,194.0 L 159.0,198.0 Z M 173.0,195.0 L 174.0,192.0 L 177.0,193.0 L 175.0,196.0 Z M 279.0,189.0 L 281.0,187.0 L 284.0,188.0 L 283.0,191.0 L 280.0,191.0 Z M 35.0,187.0 L 38.0,189.0 L 44.0,189.0 L 49.0,196.0 L 48.0,205.0 L 44.0,210.0 L 41.0,209.0 L 41.0,206.0 L 45.0,198.0 L 41.0,194.0 L 38.0,195.0 L 34.0,190.0 Z M 29.0,187.0 L 31.0,188.0 L 31.0,193.0 L 28.0,191.0 Z M 151.0,188.0 L 152.0,185.0 L 156.0,186.0 L 153.0,189.0 Z M 158.0,185.0 L 165.0,185.0 L 168.0,193.0 L 165.0,194.0 L 162.0,187.0 L 160.0,188.0 Z M 25.0,184.0 L 28.0,183.0 L 29.0,187.0 L 27.0,188.0 Z M 279.0,180.0 L 283.0,185.0 L 279.0,189.0 L 275.0,189.0 L 274.0,187.0 L 276.0,182.0 Z M 42.0,180.0 L 44.0,183.0 L 38.0,186.0 L 36.0,183.0 Z M 52.0,179.0 L 54.0,178.0 L 56.0,181.0 L 53.0,182.0 Z M 163.0,181.0 L 168.0,177.0 L 173.0,183.0 L 170.0,185.0 L 168.0,183.0 L 165.0,184.0 Z M 156.0,177.0 L 159.0,179.0 L 157.0,182.0 L 154.0,181.0 Z M 28.0,178.0 L 32.0,177.0 L 34.0,180.0 L 29.0,181.0 Z M 34.0,178.0 L 37.0,176.0 L 40.0,177.0 L 39.0,180.0 L 35.0,180.0 Z M 55.0,175.0 L 56.0,172.0 L 59.0,173.0 L 57.0,176.0 Z M 39.0,172.0 L 45.0,176.0 L 48.0,174.0 L 51.0,175.0 L 51.0,178.0 L 49.0,179.0 L 52.0,189.0 L 55.0,190.0 L 55.0,194.0 L 53.0,196.0 L 49.0,195.0 L 49.0,192.0 L 45.0,187.0 L 47.0,181.0 L 38.0,175.0 Z M 163.0,172.0 L 166.0,171.0 L 167.0,174.0 L 164.0,175.0 Z M 176.0,171.0 L 178.0,170.0 L 180.0,173.0 L 177.0,174.0 Z M 279.0,170.0 L 282.0,169.0 L 282.0,172.0 L 287.0,171.0 L 288.0,174.0 L 280.0,175.0 Z M 39.0,169.0 L 34.0,174.0 L 30.0,172.0 L 32.0,169.0 Z M 303.0,166.0 L 306.0,168.0 L 304.0,172.0 L 301.0,170.0 Z M 52.0,165.0 L 53.0,167.0 L 48.0,172.0 L 48.0,168.0 Z M 174.0,162.0 L 176.0,163.0 L 175.0,166.0 L 172.0,165.0 Z M 167.0,162.0 L 168.0,165.0 L 163.0,170.0 L 162.0,167.0 Z M 39.0,161.0 L 44.0,163.0 L 44.0,167.0 L 42.0,169.0 L 38.0,165.0 Z M 51.0,161.0 L 54.0,160.0 L 55.0,164.0 L 52.0,165.0 Z M 294.0,162.0 L 295.0,159.0 L 302.0,160.0 L 300.0,164.0 Z M 271.0,156.0 L 275.0,158.0 L 274.0,164.0 L 270.0,163.0 L 272.0,161.0 L 270.0,160.0 Z M 53.0,156.0 L 55.0,157.0 L 54.0,160.0 L 51.0,159.0 Z M 36.0,157.0 L 39.0,156.0 L 40.0,159.0 L 37.0,160.0 Z M 278.0,156.0 L 282.0,155.0 L 283.0,158.0 L 280.0,159.0 Z M 188.0,156.0 L 190.0,155.0 L 192.0,159.0 L 190.0,160.0 Z M 293.0,154.0 L 294.0,158.0 L 292.0,159.0 L 294.0,163.0 L 297.0,164.0 L 298.0,175.0 L 293.0,191.0 L 295.0,194.0 L 298.0,193.0 L 299.0,195.0 L 297.0,200.0 L 293.0,198.0 L 292.0,202.0 L 288.0,203.0 L 287.0,195.0 L 290.0,195.0 L 290.0,191.0 L 286.0,188.0 L 286.0,186.0 L 289.0,185.0 L 288.0,180.0 L 282.0,181.0 L 281.0,177.0 L 287.0,176.0 L 293.0,182.0 L 293.0,166.0 L 292.0,170.0 L 288.0,167.0 L 290.0,164.0 L 288.0,159.0 Z M 185.0,150.0 L 186.0,152.0 L 182.0,155.0 L 181.0,153.0 Z M 49.0,148.0 L 52.0,150.0 L 50.0,154.0 L 47.0,152.0 Z M 41.0,149.0 L 44.0,148.0 L 45.0,151.0 L 42.0,153.0 Z M 259.0,148.0 L 263.0,147.0 L 264.0,150.0 L 261.0,151.0 Z M 68.0,147.0 L 69.0,149.0 L 66.0,152.0 L 65.0,150.0 Z M 294.0,143.0 L 298.0,144.0 L 297.0,148.0 L 298.0,151.0 L 301.0,152.0 L 301.0,159.0 L 297.0,157.0 L 298.0,154.0 L 294.0,151.0 Z M 104.0,142.0 L 106.0,143.0 L 105.0,146.0 L 102.0,145.0 Z M 74.0,142.0 L 78.0,143.0 L 76.0,147.0 L 72.0,146.0 Z M 252.0,142.0 L 256.0,141.0 L 257.0,143.0 L 254.0,145.0 Z M 209.0,143.0 L 203.0,148.0 L 197.0,146.0 L 198.0,144.0 L 203.0,144.0 L 206.0,141.0 Z M 51.0,141.0 L 52.0,144.0 L 48.0,147.0 L 47.0,145.0 Z M 93.0,142.0 L 96.0,140.0 L 99.0,141.0 L 98.0,144.0 L 94.0,144.0 Z M 35.0,141.0 L 38.0,140.0 L 39.0,143.0 L 36.0,144.0 Z M 186.0,141.0 L 190.0,139.0 L 192.0,140.0 L 191.0,143.0 L 187.0,143.0 Z M 119.0,140.0 L 114.0,145.0 L 109.0,143.0 L 111.0,140.0 Z M 52.0,140.0 L 56.0,139.0 L 57.0,142.0 L 54.0,143.0 Z M 211.0,140.0 L 213.0,138.0 L 216.0,139.0 L 215.0,142.0 L 212.0,142.0 Z M 140.0,139.0 L 143.0,138.0 L 145.0,141.0 L 142.0,142.0 Z M 59.0,139.0 L 64.0,138.0 L 65.0,141.0 L 61.0,142.0 Z M 268.0,138.0 L 271.0,137.0 L 273.0,140.0 L 270.0,141.0 Z M 253.0,138.0 L 256.0,137.0 L 257.0,140.0 L 254.0,141.0 Z M 67.0,137.0 L 71.0,142.0 L 70.0,144.0 L 66.0,140.0 Z M 227.0,136.0 L 228.0,139.0 L 225.0,143.0 L 223.0,143.0 L 222.0,140.0 L 225.0,136.0 Z M 81.0,137.0 L 84.0,136.0 L 85.0,139.0 L 82.0,140.0 Z M 73.0,137.0 L 78.0,137.0 L 79.0,141.0 L 74.0,142.0 Z M 239.0,136.0 L 244.0,135.0 L 245.0,138.0 L 241.0,139.0 Z M 54.0,134.0 L 56.0,135.0 L 55.0,139.0 L 52.0,138.0 Z M 31.0,135.0 L 33.0,134.0 L 39.0,138.0 L 34.0,140.0 Z M 120.0,135.0 L 121.0,132.0 L 125.0,133.0 L 123.0,136.0 Z M 104.0,135.0 L 105.0,132.0 L 108.0,133.0 L 106.0,136.0 Z M 99.0,132.0 L 102.0,134.0 L 100.0,139.0 L 97.0,138.0 Z M 26.0,132.0 L 29.0,135.0 L 29.0,140.0 L 22.0,145.0 L 21.0,141.0 L 24.0,140.0 L 22.0,137.0 Z M 251.0,131.0 L 254.0,133.0 L 252.0,136.0 L 249.0,135.0 Z M 205.0,131.0 L 204.0,134.0 L 197.0,134.0 L 198.0,131.0 Z M 266.0,132.0 L 269.0,129.0 L 275.0,131.0 L 275.0,133.0 L 270.0,136.0 Z M 94.0,129.0 L 97.0,133.0 L 94.0,134.0 L 88.0,142.0 L 86.0,139.0 L 89.0,137.0 L 84.0,136.0 L 82.0,133.0 L 88.0,129.0 Z M 59.0,129.0 L 62.0,126.0 L 65.0,130.0 L 60.0,131.0 Z M 282.0,126.0 L 285.0,125.0 L 286.0,128.0 L 284.0,129.0 Z M 262.0,126.0 L 264.0,125.0 L 268.0,129.0 L 265.0,131.0 Z M 23.0,130.0 L 25.0,125.0 L 29.0,125.0 L 31.0,127.0 L 27.0,131.0 Z M 252.0,124.0 L 251.0,127.0 L 244.0,127.0 L 250.0,123.0 Z M 113.0,124.0 L 119.0,123.0 L 121.0,127.0 L 117.0,129.0 Z M 253.0,123.0 L 257.0,121.0 L 259.0,125.0 L 254.0,126.0 Z M 55.0,118.0 L 56.0,120.0 L 49.0,124.0 L 49.0,128.0 L 46.0,130.0 L 44.0,120.0 L 46.0,118.0 Z M 242.0,119.0 L 243.0,116.0 L 246.0,117.0 L 244.0,120.0 Z M 259.0,115.0 L 270.0,115.0 L 275.0,122.0 L 279.0,121.0 L 282.0,124.0 L 283.0,131.0 L 292.0,132.0 L 295.0,139.0 L 299.0,140.0 L 298.0,142.0 L 290.0,138.0 L 281.0,142.0 L 282.0,146.0 L 288.0,143.0 L 293.0,149.0 L 292.0,152.0 L 284.0,148.0 L 279.0,150.0 L 276.0,156.0 L 272.0,146.0 L 271.0,149.0 L 265.0,147.0 L 266.0,143.0 L 276.0,144.0 L 275.0,138.0 L 281.0,136.0 L 276.0,130.0 L 277.0,127.0 L 264.0,124.0 L 259.0,119.0 Z M 250.0,115.0 L 255.0,114.0 L 256.0,118.0 L 253.0,119.0 Z M 29.0,118.0 L 35.0,117.0 L 37.0,114.0 L 41.0,115.0 L 38.0,120.0 L 43.0,122.0 L 43.0,128.0 L 45.0,130.0 L 39.0,131.0 L 46.0,136.0 L 45.0,138.0 L 40.0,138.0 L 35.0,130.0 L 36.0,127.0 L 41.0,125.0 L 35.0,122.0 L 33.0,125.0 L 29.0,125.0 L 27.0,123.0 Z M 246.0,114.0 L 248.0,113.0 L 250.0,116.0 L 247.0,117.0 Z M 43.0,115.0 L 50.0,111.0 L 55.0,114.0 L 66.0,114.0 L 67.0,119.0 L 73.0,122.0 L 73.0,128.0 L 77.0,134.0 L 74.0,135.0 L 72.0,132.0 L 69.0,136.0 L 67.0,136.0 L 66.0,133.0 L 68.0,131.0 L 65.0,124.0 L 62.0,125.0 L 60.0,120.0 L 52.0,118.0 L 51.0,115.0 L 46.0,118.0 Z M 94.0,127.0 L 112.0,113.0 L 135.0,109.0 L 156.0,116.0 L 163.0,122.0 L 169.0,133.0 L 134.0,121.0 L 113.0,123.0 L 97.0,129.0 Z M 499.0,104.0 L 487.0,98.0 L 468.0,98.0 L 458.0,102.0 L 448.0,111.0 L 442.0,123.0 L 440.0,136.0 L 439.0,210.0 L 429.0,224.0 L 421.0,227.0 L 407.0,225.0 L 398.0,215.0 L 396.0,206.0 L 398.0,133.0 L 393.0,116.0 L 382.0,105.0 L 369.0,101.0 L 348.0,104.0 L 337.0,113.0 L 329.0,129.0 L 327.0,215.0 L 332.0,240.0 L 340.0,255.0 L 353.0,269.0 L 364.0,277.0 L 383.0,285.0 L 399.0,288.0 L 424.0,288.0 L 443.0,284.0 L 464.0,275.0 L 491.0,253.0 L 505.0,231.0 L 512.0,202.0 L 513.0,128.0 L 508.0,114.0 Z M 387.0,263.0 L 389.0,262.0 L 391.0,265.0 L 388.0,266.0 Z M 379.0,263.0 L 381.0,262.0 L 383.0,265.0 L 380.0,266.0 Z M 396.0,256.0 L 399.0,257.0 L 398.0,261.0 L 394.0,260.0 Z M 379.0,256.0 L 382.0,255.0 L 384.0,259.0 L 380.0,260.0 Z M 371.0,257.0 L 374.0,255.0 L 377.0,256.0 L 376.0,259.0 L 372.0,259.0 Z M 410.0,256.0 L 410.0,258.0 L 406.0,260.0 L 402.0,260.0 L 400.0,258.0 L 401.0,256.0 L 407.0,254.0 Z M 390.0,256.0 L 391.0,253.0 L 395.0,254.0 L 393.0,257.0 Z M 380.0,252.0 L 384.0,250.0 L 386.0,251.0 L 385.0,254.0 L 381.0,254.0 Z M 361.0,251.0 L 364.0,250.0 L 366.0,253.0 L 364.0,254.0 Z M 407.0,249.0 L 408.0,251.0 L 403.0,254.0 L 402.0,252.0 Z M 413.0,248.0 L 415.0,249.0 L 414.0,252.0 L 411.0,251.0 Z M 394.0,247.0 L 395.0,250.0 L 389.0,254.0 L 388.0,252.0 Z M 370.0,246.0 L 372.0,249.0 L 368.0,254.0 L 367.0,250.0 Z M 428.0,245.0 L 430.0,246.0 L 429.0,250.0 L 427.0,249.0 Z M 382.0,246.0 L 384.0,245.0 L 386.0,249.0 L 383.0,250.0 Z M 398.0,244.0 L 401.0,245.0 L 400.0,249.0 L 396.0,248.0 Z M 375.0,244.0 L 378.0,246.0 L 378.0,251.0 L 376.0,249.0 L 375.0,251.0 L 372.0,249.0 Z M 358.0,245.0 L 360.0,244.0 L 362.0,248.0 L 360.0,249.0 Z M 431.0,244.0 L 434.0,243.0 L 435.0,246.0 L 432.0,247.0 Z M 387.0,241.0 L 389.0,240.0 L 395.0,245.0 L 389.0,245.0 Z M 438.0,239.0 L 440.0,240.0 L 439.0,243.0 L 436.0,242.0 Z M 364.0,240.0 L 368.0,239.0 L 372.0,244.0 L 369.0,245.0 Z M 448.0,238.0 L 450.0,237.0 L 452.0,240.0 L 449.0,241.0 Z M 402.0,238.0 L 404.0,237.0 L 406.0,241.0 L 404.0,242.0 Z M 379.0,237.0 L 385.0,237.0 L 386.0,241.0 L 383.0,243.0 Z M 353.0,237.0 L 356.0,236.0 L 357.0,239.0 L 354.0,240.0 Z M 373.0,239.0 L 375.0,235.0 L 379.0,237.0 L 376.0,241.0 Z M 393.0,233.0 L 396.0,234.0 L 394.0,238.0 L 391.0,236.0 Z M 379.0,232.0 L 382.0,233.0 L 380.0,236.0 L 377.0,235.0 Z M 358.0,232.0 L 360.0,233.0 L 359.0,237.0 L 357.0,236.0 Z M 457.0,231.0 L 458.0,234.0 L 454.0,238.0 L 454.0,233.0 Z M 443.0,232.0 L 446.0,231.0 L 447.0,234.0 L 444.0,235.0 Z M 347.0,231.0 L 350.0,230.0 L 351.0,233.0 L 349.0,234.0 Z M 391.0,229.0 L 394.0,230.0 L 392.0,233.0 L 389.0,232.0 Z M 372.0,229.0 L 376.0,228.0 L 377.0,231.0 L 374.0,232.0 Z M 462.0,228.0 L 464.0,227.0 L 466.0,230.0 L 463.0,231.0 Z M 387.0,227.0 L 389.0,228.0 L 388.0,231.0 L 385.0,230.0 Z M 347.0,226.0 L 350.0,223.0 L 357.0,228.0 L 352.0,229.0 L 351.0,227.0 L 348.0,228.0 Z M 354.0,222.0 L 357.0,221.0 L 359.0,226.0 L 355.0,226.0 Z M 379.0,221.0 L 382.0,220.0 L 383.0,223.0 L 381.0,224.0 Z M 370.0,220.0 L 374.0,221.0 L 374.0,225.0 L 372.0,227.0 L 368.0,224.0 Z M 362.0,220.0 L 365.0,221.0 L 364.0,227.0 L 370.0,229.0 L 368.0,234.0 L 360.0,228.0 Z M 466.0,219.0 L 469.0,218.0 L 470.0,221.0 L 467.0,222.0 Z M 346.0,217.0 L 349.0,220.0 L 348.0,224.0 L 346.0,223.0 Z M 363.0,214.0 L 366.0,217.0 L 364.0,220.0 L 361.0,218.0 Z M 374.0,213.0 L 378.0,212.0 L 379.0,215.0 L 375.0,217.0 Z M 352.0,213.0 L 357.0,211.0 L 359.0,216.0 L 354.0,217.0 Z M 360.0,205.0 L 363.0,206.0 L 362.0,211.0 L 358.0,209.0 Z M 368.0,204.0 L 371.0,205.0 L 370.0,209.0 L 372.0,212.0 L 369.0,217.0 L 365.0,213.0 Z M 374.0,206.0 L 375.0,203.0 L 378.0,204.0 L 376.0,207.0 Z M 460.0,199.0 L 462.0,198.0 L 464.0,201.0 L 461.0,202.0 Z M 354.0,198.0 L 355.0,202.0 L 351.0,205.0 L 350.0,201.0 Z M 455.0,198.0 L 459.0,197.0 L 460.0,199.0 L 456.0,200.0 Z M 468.0,196.0 L 469.0,200.0 L 465.0,203.0 L 465.0,198.0 Z M 356.0,194.0 L 359.0,193.0 L 360.0,196.0 L 357.0,197.0 Z M 478.0,193.0 L 480.0,192.0 L 482.0,195.0 L 479.0,196.0 Z M 470.0,192.0 L 474.0,193.0 L 472.0,197.0 L 468.0,196.0 Z M 457.0,192.0 L 460.0,191.0 L 461.0,194.0 L 458.0,195.0 Z M 374.0,189.0 L 377.0,188.0 L 378.0,191.0 L 376.0,192.0 Z M 461.0,188.0 L 464.0,187.0 L 465.0,191.0 L 463.0,192.0 Z M 465.0,187.0 L 467.0,185.0 L 470.0,186.0 L 469.0,189.0 L 466.0,189.0 Z M 481.0,185.0 L 484.0,184.0 L 486.0,187.0 L 482.0,188.0 Z M 360.0,184.0 L 362.0,185.0 L 361.0,188.0 L 363.0,190.0 L 361.0,193.0 L 357.0,188.0 Z M 348.0,182.0 L 350.0,181.0 L 352.0,184.0 L 349.0,186.0 Z M 366.0,179.0 L 369.0,180.0 L 369.0,184.0 L 371.0,186.0 L 377.0,186.0 L 376.0,188.0 L 370.0,189.0 L 371.0,195.0 L 367.0,200.0 L 364.0,198.0 L 364.0,195.0 L 367.0,192.0 L 367.0,185.0 L 365.0,184.0 Z M 469.0,177.0 L 470.0,181.0 L 467.0,183.0 L 466.0,179.0 Z M 356.0,179.0 L 361.0,177.0 L 363.0,181.0 L 357.0,181.0 Z M 478.0,176.0 L 479.0,179.0 L 474.0,181.0 L 473.0,179.0 Z M 459.0,178.0 L 462.0,176.0 L 464.0,177.0 L 463.0,180.0 L 460.0,180.0 Z M 349.0,176.0 L 352.0,175.0 L 353.0,178.0 L 351.0,179.0 Z M 363.0,173.0 L 367.0,175.0 L 365.0,178.0 L 361.0,177.0 Z M 372.0,171.0 L 375.0,174.0 L 374.0,178.0 L 372.0,177.0 Z M 356.0,169.0 L 357.0,172.0 L 354.0,174.0 L 353.0,171.0 Z M 484.0,168.0 L 486.0,170.0 L 486.0,175.0 L 482.0,178.0 L 480.0,174.0 L 483.0,174.0 L 481.0,170.0 Z M 461.0,169.0 L 464.0,168.0 L 465.0,171.0 L 462.0,172.0 Z M 472.0,167.0 L 474.0,169.0 L 473.0,174.0 L 468.0,177.0 L 467.0,174.0 L 469.0,169.0 Z M 366.0,164.0 L 369.0,165.0 L 368.0,170.0 L 365.0,168.0 Z M 346.0,165.0 L 348.0,164.0 L 351.0,167.0 L 348.0,168.0 Z M 477.0,163.0 L 481.0,162.0 L 482.0,166.0 L 480.0,167.0 Z M 461.0,162.0 L 464.0,160.0 L 466.0,163.0 L 462.0,164.0 Z M 480.0,158.0 L 482.0,157.0 L 485.0,161.0 L 482.0,162.0 Z M 490.0,157.0 L 492.0,156.0 L 496.0,160.0 L 491.0,160.0 Z M 467.0,155.0 L 473.0,158.0 L 475.0,165.0 L 474.0,168.0 L 468.0,163.0 L 466.0,159.0 Z M 360.0,155.0 L 362.0,156.0 L 361.0,159.0 L 358.0,158.0 Z M 485.0,155.0 L 486.0,152.0 L 489.0,153.0 L 487.0,156.0 Z M 366.0,151.0 L 369.0,153.0 L 367.0,158.0 L 365.0,157.0 Z M 345.0,154.0 L 348.0,151.0 L 350.0,152.0 L 348.0,155.0 Z M 354.0,150.0 L 357.0,151.0 L 355.0,153.0 L 357.0,155.0 L 356.0,157.0 L 352.0,154.0 Z M 478.0,150.0 L 474.0,154.0 L 471.0,153.0 L 475.0,149.0 Z M 381.0,148.0 L 383.0,149.0 L 382.0,152.0 L 379.0,151.0 Z M 493.0,147.0 L 495.0,148.0 L 494.0,152.0 L 492.0,151.0 Z M 462.0,148.0 L 465.0,147.0 L 466.0,151.0 L 463.0,152.0 Z M 457.0,148.0 L 459.0,147.0 L 461.0,150.0 L 458.0,151.0 Z M 353.0,147.0 L 356.0,146.0 L 357.0,149.0 L 354.0,150.0 Z M 470.0,146.0 L 473.0,145.0 L 474.0,148.0 L 471.0,149.0 Z M 347.0,145.0 L 351.0,147.0 L 349.0,151.0 L 345.0,148.0 Z M 370.0,142.0 L 373.0,143.0 L 372.0,148.0 L 368.0,146.0 Z M 483.0,140.0 L 486.0,142.0 L 485.0,145.0 L 481.0,143.0 Z M 460.0,140.0 L 462.0,141.0 L 461.0,144.0 L 458.0,143.0 Z M 340.0,139.0 L 342.0,138.0 L 344.0,142.0 L 341.0,143.0 Z M 486.0,137.0 L 491.0,136.0 L 494.0,140.0 L 490.0,142.0 Z M 452.0,139.0 L 453.0,136.0 L 456.0,137.0 L 454.0,140.0 Z M 341.0,134.0 L 344.0,133.0 L 345.0,136.0 L 342.0,137.0 Z M 498.0,132.0 L 501.0,134.0 L 500.0,138.0 L 496.0,137.0 Z M 378.0,132.0 L 382.0,134.0 L 384.0,132.0 L 386.0,134.0 L 383.0,136.0 L 384.0,143.0 L 381.0,147.0 L 379.0,146.0 L 377.0,135.0 Z M 367.0,134.0 L 368.0,131.0 L 372.0,132.0 L 370.0,135.0 Z M 351.0,130.0 L 354.0,130.0 L 355.0,128.0 L 364.0,129.0 L 363.0,138.0 L 360.0,138.0 L 363.0,140.0 L 361.0,143.0 L 350.0,138.0 L 351.0,136.0 L 356.0,136.0 L 357.0,138.0 L 359.0,136.0 L 353.0,136.0 L 350.0,133.0 Z M 488.0,124.0 L 497.0,124.0 L 499.0,126.0 L 499.0,131.0 L 495.0,131.0 L 489.0,127.0 Z M 353.0,123.0 L 356.0,122.0 L 357.0,125.0 L 354.0,126.0 Z M 469.0,119.0 L 469.0,124.0 L 473.0,124.0 L 476.0,127.0 L 482.0,127.0 L 484.0,131.0 L 483.0,135.0 L 480.0,136.0 L 478.0,132.0 L 481.0,131.0 L 471.0,133.0 L 468.0,130.0 L 469.0,141.0 L 466.0,143.0 L 465.0,136.0 L 463.0,134.0 L 464.0,131.0 L 461.0,128.0 L 463.0,126.0 L 467.0,126.0 L 472.0,129.0 L 466.0,124.0 L 467.0,120.0 Z M 375.0,117.0 L 378.0,117.0 L 381.0,121.0 L 378.0,123.0 L 383.0,126.0 L 382.0,129.0 L 376.0,127.0 L 372.0,122.0 Z M 357.0,115.0 L 358.0,119.0 L 349.0,125.0 L 345.0,131.0 L 343.0,131.0 L 341.0,128.0 L 344.0,124.0 L 347.0,124.0 L 345.0,123.0 L 347.0,118.0 Z M 368.0,115.0 L 373.0,114.0 L 375.0,117.0 L 371.0,119.0 Z M 361.0,113.0 L 370.0,124.0 L 370.0,129.0 L 367.0,129.0 L 363.0,123.0 L 360.0,123.0 L 361.0,118.0 L 359.0,115.0 Z M 482.0,112.0 L 486.0,111.0 L 488.0,114.0 L 494.0,115.0 L 496.0,121.0 L 494.0,122.0 L 485.0,119.0 Z M 480.0,111.0 L 476.0,114.0 L 477.0,116.0 L 480.0,114.0 L 482.0,115.0 L 482.0,122.0 L 480.0,123.0 L 479.0,127.0 L 475.0,125.0 L 475.0,123.0 L 478.0,122.0 L 476.0,122.0 L 473.0,115.0 L 471.0,115.0 L 465.0,119.0 L 464.0,125.0 L 461.0,124.0 L 455.0,132.0 L 453.0,131.0 L 454.0,121.0 L 460.0,113.0 L 467.0,109.0 L 478.0,109.0 Z M 773.0,115.0 L 758.0,100.0 L 731.0,91.0 L 712.0,93.0 L 697.0,99.0 L 685.0,107.0 L 674.0,120.0 L 657.0,102.0 L 635.0,93.0 L 621.0,93.0 L 601.0,102.0 L 592.0,112.0 L 583.0,101.0 L 568.0,93.0 L 554.0,92.0 L 538.0,98.0 L 526.0,111.0 L 519.0,132.0 L 521.0,133.0 L 521.0,167.0 L 518.0,177.0 L 519.0,258.0 L 524.0,273.0 L 532.0,281.0 L 542.0,286.0 L 559.0,286.0 L 575.0,276.0 L 583.0,259.0 L 585.0,175.0 L 593.0,163.0 L 608.0,161.0 L 615.0,166.0 L 619.0,174.0 L 618.0,258.0 L 620.0,266.0 L 631.0,280.0 L 639.0,284.0 L 653.0,285.0 L 666.0,280.0 L 676.0,270.0 L 681.0,256.0 L 682.0,174.0 L 690.0,162.0 L 703.0,159.0 L 708.0,161.0 L 716.0,172.0 L 714.0,252.0 L 717.0,266.0 L 728.0,279.0 L 737.0,283.0 L 749.0,284.0 L 763.0,279.0 L 775.0,267.0 L 780.0,253.0 L 782.0,140.0 Z M 545.0,251.0 L 548.0,250.0 L 550.0,255.0 L 547.0,256.0 Z M 540.0,243.0 L 544.0,242.0 L 545.0,244.0 L 541.0,245.0 Z M 559.0,242.0 L 561.0,241.0 L 564.0,244.0 L 561.0,245.0 Z M 551.0,239.0 L 554.0,238.0 L 555.0,241.0 L 553.0,242.0 Z M 542.0,235.0 L 546.0,234.0 L 547.0,236.0 L 543.0,237.0 Z M 555.0,233.0 L 556.0,235.0 L 553.0,238.0 L 552.0,235.0 Z M 661.0,232.0 L 663.0,233.0 L 662.0,236.0 L 659.0,235.0 Z M 650.0,230.0 L 651.0,232.0 L 644.0,237.0 L 644.0,233.0 Z M 562.0,226.0 L 564.0,225.0 L 567.0,228.0 L 563.0,229.0 Z M 550.0,227.0 L 553.0,225.0 L 555.0,226.0 L 554.0,229.0 L 551.0,229.0 Z M 654.0,225.0 L 657.0,224.0 L 659.0,227.0 L 657.0,228.0 Z M 755.0,222.0 L 757.0,221.0 L 759.0,224.0 L 756.0,225.0 Z M 550.0,222.0 L 553.0,221.0 L 555.0,224.0 L 553.0,225.0 Z M 545.0,218.0 L 547.0,217.0 L 549.0,220.0 L 546.0,221.0 Z M 741.0,218.0 L 743.0,216.0 L 746.0,217.0 L 745.0,220.0 L 742.0,220.0 Z M 653.0,216.0 L 654.0,218.0 L 651.0,221.0 L 650.0,218.0 Z M 644.0,215.0 L 648.0,214.0 L 649.0,216.0 L 645.0,217.0 Z M 745.0,213.0 L 748.0,212.0 L 749.0,215.0 L 746.0,216.0 Z M 558.0,212.0 L 561.0,213.0 L 560.0,222.0 L 556.0,219.0 Z M 751.0,212.0 L 757.0,210.0 L 759.0,213.0 L 755.0,213.0 L 753.0,215.0 Z M 547.0,214.0 L 549.0,209.0 L 554.0,211.0 L 549.0,215.0 Z M 645.0,208.0 L 647.0,209.0 L 647.0,214.0 L 644.0,212.0 Z M 657.0,207.0 L 660.0,206.0 L 661.0,210.0 L 659.0,211.0 Z M 749.0,205.0 L 751.0,206.0 L 750.0,210.0 L 747.0,209.0 Z M 557.0,208.0 L 558.0,205.0 L 563.0,206.0 L 561.0,209.0 Z M 541.0,206.0 L 544.0,205.0 L 545.0,208.0 L 543.0,209.0 Z M 550.0,205.0 L 553.0,204.0 L 554.0,207.0 L 552.0,208.0 Z M 648.0,203.0 L 651.0,205.0 L 649.0,209.0 L 646.0,207.0 Z M 749.0,198.0 L 752.0,197.0 L 753.0,200.0 L 750.0,201.0 Z M 552.0,196.0 L 553.0,198.0 L 549.0,200.0 L 548.0,198.0 Z M 539.0,197.0 L 545.0,196.0 L 546.0,200.0 L 542.0,201.0 Z M 557.0,190.0 L 560.0,190.0 L 562.0,193.0 L 560.0,196.0 L 561.0,200.0 L 559.0,202.0 L 557.0,201.0 L 557.0,195.0 L 555.0,193.0 Z M 552.0,188.0 L 553.0,190.0 L 548.0,194.0 L 547.0,190.0 Z M 759.0,189.0 L 760.0,186.0 L 763.0,187.0 L 761.0,190.0 Z M 556.0,187.0 L 559.0,186.0 L 560.0,189.0 L 557.0,190.0 Z M 541.0,183.0 L 546.0,182.0 L 547.0,184.0 L 542.0,185.0 Z M 753.0,181.0 L 755.0,184.0 L 751.0,190.0 L 752.0,192.0 L 749.0,194.0 L 748.0,190.0 L 750.0,187.0 L 750.0,182.0 Z M 742.0,180.0 L 744.0,181.0 L 743.0,184.0 L 740.0,183.0 Z M 547.0,181.0 L 549.0,180.0 L 551.0,182.0 L 555.0,178.0 L 557.0,181.0 L 560.0,180.0 L 562.0,184.0 L 557.0,185.0 L 556.0,183.0 L 551.0,186.0 L 547.0,183.0 Z M 653.0,177.0 L 656.0,176.0 L 658.0,179.0 L 654.0,180.0 Z M 754.0,175.0 L 756.0,176.0 L 755.0,179.0 L 752.0,178.0 Z M 563.0,172.0 L 565.0,176.0 L 561.0,180.0 L 560.0,176.0 Z M 545.0,173.0 L 553.0,172.0 L 555.0,175.0 L 548.0,177.0 Z M 748.0,171.0 L 751.0,170.0 L 754.0,174.0 L 750.0,175.0 Z M 742.0,170.0 L 744.0,169.0 L 747.0,174.0 L 745.0,175.0 Z M 555.0,168.0 L 557.0,169.0 L 556.0,174.0 L 553.0,172.0 Z M 541.0,166.0 L 545.0,167.0 L 543.0,169.0 L 543.0,173.0 L 540.0,169.0 Z M 562.0,162.0 L 565.0,161.0 L 566.0,164.0 L 563.0,165.0 Z M 759.0,158.0 L 761.0,161.0 L 755.0,168.0 L 754.0,163.0 Z M 746.0,158.0 L 749.0,159.0 L 749.0,170.0 L 745.0,166.0 Z M 568.0,156.0 L 570.0,155.0 L 572.0,158.0 L 569.0,159.0 Z M 744.0,154.0 L 746.0,153.0 L 748.0,156.0 L 745.0,158.0 Z M 549.0,152.0 L 552.0,153.0 L 550.0,158.0 L 555.0,163.0 L 554.0,166.0 L 545.0,161.0 Z M 748.0,151.0 L 750.0,150.0 L 752.0,154.0 L 749.0,155.0 Z M 540.0,149.0 L 544.0,153.0 L 543.0,156.0 L 539.0,152.0 Z M 551.0,149.0 L 554.0,148.0 L 556.0,151.0 L 554.0,152.0 Z M 742.0,147.0 L 744.0,148.0 L 743.0,151.0 L 740.0,150.0 Z M 545.0,149.0 L 550.0,147.0 L 551.0,151.0 L 548.0,152.0 Z M 564.0,145.0 L 567.0,147.0 L 566.0,154.0 L 564.0,154.0 L 561.0,150.0 Z M 753.0,144.0 L 758.0,149.0 L 756.0,153.0 L 754.0,152.0 L 754.0,149.0 L 751.0,148.0 Z M 649.0,144.0 L 651.0,145.0 L 650.0,148.0 L 647.0,147.0 Z M 539.0,141.0 L 542.0,143.0 L 541.0,148.0 L 538.0,145.0 Z M 567.0,140.0 L 570.0,139.0 L 571.0,142.0 L 569.0,143.0 Z M 618.0,138.0 L 621.0,137.0 L 622.0,140.0 L 620.0,141.0 Z M 537.0,138.0 L 540.0,137.0 L 541.0,140.0 L 538.0,141.0 Z M 762.0,136.0 L 764.0,137.0 L 764.0,141.0 L 766.0,143.0 L 765.0,146.0 L 760.0,143.0 L 760.0,138.0 Z M 590.0,135.0 L 591.0,138.0 L 589.0,141.0 L 585.0,142.0 L 584.0,139.0 Z M 578.0,135.0 L 582.0,137.0 L 580.0,140.0 L 576.0,138.0 Z M 621.0,136.0 L 622.0,133.0 L 625.0,134.0 L 623.0,137.0 Z M 744.0,132.0 L 746.0,133.0 L 745.0,137.0 L 742.0,136.0 Z M 598.0,134.0 L 601.0,132.0 L 603.0,135.0 L 599.0,136.0 Z M 572.0,136.0 L 571.0,138.0 L 564.0,138.0 L 563.0,135.0 L 563.0,141.0 L 561.0,143.0 L 558.0,143.0 L 556.0,146.0 L 552.0,145.0 L 552.0,143.0 L 555.0,142.0 L 552.0,139.0 L 554.0,134.0 L 557.0,136.0 L 557.0,140.0 L 561.0,132.0 L 568.0,132.0 Z M 538.0,133.0 L 541.0,132.0 L 545.0,136.0 L 540.0,137.0 Z M 753.0,131.0 L 757.0,139.0 L 750.0,144.0 L 750.0,132.0 Z M 624.0,132.0 L 626.0,131.0 L 630.0,134.0 L 626.0,136.0 Z M 553.0,131.0 L 549.0,137.0 L 545.0,135.0 L 548.0,131.0 Z M 758.0,130.0 L 761.0,129.0 L 762.0,132.0 L 759.0,133.0 Z M 613.0,129.0 L 616.0,127.0 L 619.0,131.0 L 614.0,132.0 Z M 607.0,127.0 L 609.0,128.0 L 608.0,131.0 L 605.0,130.0 Z M 598.0,127.0 L 599.0,131.0 L 596.0,133.0 L 594.0,130.0 Z M 574.0,128.0 L 580.0,127.0 L 587.0,133.0 L 580.0,134.0 L 575.0,131.0 Z M 558.0,127.0 L 562.0,126.0 L 565.0,130.0 L 562.0,131.0 Z M 570.0,123.0 L 573.0,124.0 L 572.0,129.0 L 569.0,127.0 Z M 747.0,123.0 L 750.0,122.0 L 751.0,125.0 L 749.0,126.0 Z M 605.0,123.0 L 608.0,122.0 L 609.0,125.0 L 606.0,126.0 Z M 598.0,121.0 L 598.0,126.0 L 595.0,127.0 L 593.0,124.0 Z M 558.0,121.0 L 558.0,129.0 L 553.0,131.0 L 552.0,129.0 L 554.0,127.0 L 554.0,123.0 Z M 586.0,120.0 L 589.0,121.0 L 587.0,124.0 L 591.0,125.0 L 588.0,129.0 L 583.0,126.0 Z M 573.0,122.0 L 580.0,120.0 L 582.0,124.0 L 577.0,125.0 Z M 537.0,122.0 L 540.0,120.0 L 542.0,121.0 L 541.0,124.0 L 538.0,124.0 Z M 756.0,119.0 L 759.0,124.0 L 756.0,128.0 L 751.0,128.0 L 750.0,126.0 Z M 618.0,118.0 L 620.0,117.0 L 622.0,121.0 L 619.0,122.0 Z M 604.0,117.0 L 606.0,118.0 L 605.0,123.0 L 602.0,121.0 Z M 581.0,117.0 L 580.0,120.0 L 573.0,119.0 L 572.0,123.0 L 569.0,121.0 L 568.0,124.0 L 561.0,123.0 L 562.0,119.0 L 566.0,119.0 L 574.0,114.0 Z M 554.0,113.0 L 555.0,121.0 L 550.0,125.0 L 551.0,130.0 L 549.0,131.0 L 546.0,128.0 L 547.0,120.0 L 552.0,118.0 L 552.0,114.0 Z M 542.0,112.0 L 545.0,113.0 L 544.0,118.0 L 540.0,117.0 Z M 549.0,108.0 L 550.0,110.0 L 546.0,112.0 L 545.0,110.0 Z M 574.0,109.0 L 572.0,114.0 L 568.0,114.0 L 565.0,111.0 L 561.0,112.0 L 561.0,119.0 L 558.0,121.0 L 555.0,120.0 L 555.0,108.0 L 559.0,110.0 L 560.0,108.0 L 569.0,106.0 Z M 604.0,115.0 L 621.0,105.0 L 639.0,105.0 L 656.0,116.0 L 663.0,130.0 L 661.0,131.0 L 639.0,117.0 L 623.0,114.0 L 606.0,117.0 Z M 635.0,103.0 L 639.0,102.0 L 640.0,104.0 L 636.0,105.0 Z M 751.0,118.0 L 749.0,122.0 L 733.0,116.0 L 718.0,116.0 L 704.0,120.0 L 680.0,136.0 L 677.0,135.0 L 686.0,121.0 L 705.0,107.0 L 735.0,100.0 L 735.0,104.0 L 728.0,104.0 L 745.0,110.0 Z M 792.0,117.0 L 789.0,158.0 L 788.0,261.0 L 794.0,276.0 L 808.0,285.0 L 829.0,284.0 L 845.0,270.0 L 850.0,259.0 L 851.0,181.0 L 857.0,170.0 L 866.0,165.0 L 881.0,168.0 L 887.0,177.0 L 887.0,260.0 L 891.0,272.0 L 899.0,281.0 L 913.0,287.0 L 928.0,286.0 L 939.0,280.0 L 948.0,268.0 L 951.0,256.0 L 952.0,176.0 L 956.0,167.0 L 965.0,161.0 L 979.0,162.0 L 988.0,173.0 L 988.0,258.0 L 995.0,274.0 L 1010.0,285.0 L 1032.0,285.0 L 1042.0,280.0 L 1050.0,272.0 L 1056.0,256.0 L 1056.0,213.0 L 1060.0,201.0 L 1062.0,202.0 L 1065.0,231.0 L 1075.0,254.0 L 1093.0,275.0 L 1120.0,291.0 L 1142.0,296.0 L 1162.0,296.0 L 1183.0,291.0 L 1206.0,277.0 L 1210.0,285.0 L 1221.0,295.0 L 1232.0,299.0 L 1244.0,299.0 L 1260.0,292.0 L 1272.0,275.0 L 1275.0,147.0 L 1261.0,136.0 L 1258.0,128.0 L 1258.0,113.0 L 1251.0,109.0 L 1231.0,110.0 L 1215.0,123.0 L 1202.0,110.0 L 1181.0,99.0 L 1150.0,96.0 L 1122.0,103.0 L 1095.0,120.0 L 1078.0,140.0 L 1066.0,166.0 L 1061.0,196.0 L 1057.0,177.0 L 1059.0,170.0 L 1057.0,169.0 L 1056.0,141.0 L 1050.0,121.0 L 1043.0,110.0 L 1031.0,99.0 L 1011.0,90.0 L 988.0,88.0 L 972.0,92.0 L 951.0,105.0 L 942.0,117.0 L 927.0,103.0 L 906.0,96.0 L 883.0,99.0 L 861.0,115.0 L 848.0,100.0 L 835.0,94.0 L 825.0,93.0 L 805.0,100.0 Z M 1142.0,272.0 L 1145.0,271.0 L 1146.0,274.0 L 1143.0,275.0 Z M 1132.0,271.0 L 1135.0,270.0 L 1137.0,273.0 L 1133.0,274.0 Z M 1152.0,265.0 L 1153.0,267.0 L 1149.0,272.0 L 1148.0,268.0 Z M 1118.0,266.0 L 1122.0,265.0 L 1123.0,268.0 L 1119.0,269.0 Z M 1137.0,263.0 L 1130.0,271.0 L 1125.0,270.0 L 1126.0,267.0 L 1135.0,262.0 Z M 1245.0,258.0 L 1247.0,259.0 L 1246.0,262.0 L 1243.0,261.0 Z M 1163.0,259.0 L 1166.0,258.0 L 1167.0,261.0 L 1165.0,262.0 Z M 1137.0,259.0 L 1140.0,258.0 L 1141.0,261.0 L 1138.0,262.0 Z M 1115.0,259.0 L 1120.0,259.0 L 1125.0,256.0 L 1130.0,263.0 L 1127.0,264.0 L 1124.0,261.0 L 1118.0,263.0 Z M 1226.0,255.0 L 1227.0,257.0 L 1223.0,259.0 L 1222.0,257.0 Z M 1165.0,255.0 L 1168.0,254.0 L 1169.0,258.0 L 1167.0,259.0 Z M 1248.0,253.0 L 1251.0,252.0 L 1253.0,256.0 L 1251.0,257.0 Z M 1128.0,255.0 L 1131.0,252.0 L 1135.0,254.0 L 1132.0,258.0 Z M 1104.0,253.0 L 1106.0,252.0 L 1108.0,255.0 L 1105.0,256.0 Z M 1140.0,249.0 L 1142.0,250.0 L 1141.0,255.0 L 1138.0,253.0 Z M 1021.0,249.0 L 1023.0,252.0 L 1018.0,258.0 L 1017.0,255.0 Z M 1178.0,249.0 L 1182.0,248.0 L 1183.0,250.0 L 1179.0,251.0 Z M 1135.0,249.0 L 1137.0,248.0 L 1139.0,251.0 L 1136.0,252.0 Z M 1121.0,247.0 L 1124.0,250.0 L 1122.0,253.0 L 1118.0,251.0 Z M 1185.0,247.0 L 1187.0,246.0 L 1190.0,250.0 L 1187.0,251.0 Z M 1111.0,247.0 L 1116.0,247.0 L 1118.0,252.0 L 1116.0,253.0 L 1112.0,251.0 Z M 1102.0,247.0 L 1104.0,246.0 L 1110.0,250.0 L 1106.0,252.0 L 1102.0,249.0 Z M 1213.0,244.0 L 1214.0,246.0 L 1210.0,248.0 L 1209.0,246.0 Z M 1141.0,246.0 L 1145.0,244.0 L 1148.0,247.0 L 1143.0,250.0 Z M 1133.0,244.0 L 1129.0,249.0 L 1125.0,248.0 L 1125.0,246.0 L 1129.0,243.0 Z M 1097.0,244.0 L 1100.0,243.0 L 1101.0,246.0 L 1098.0,247.0 Z M 1118.0,243.0 L 1120.0,242.0 L 1122.0,245.0 L 1119.0,246.0 Z M 1133.0,242.0 L 1135.0,241.0 L 1137.0,244.0 L 1134.0,245.0 Z M 1026.0,241.0 L 1028.0,242.0 L 1027.0,253.0 L 1024.0,252.0 L 1024.0,244.0 Z M 1107.0,243.0 L 1108.0,240.0 L 1111.0,241.0 L 1109.0,244.0 Z M 1015.0,240.0 L 1019.0,242.0 L 1017.0,247.0 L 1014.0,243.0 Z M 925.0,239.0 L 927.0,240.0 L 927.0,245.0 L 924.0,243.0 Z M 1234.0,238.0 L 1235.0,235.0 L 1238.0,236.0 L 1236.0,239.0 Z M 1227.0,235.0 L 1229.0,234.0 L 1231.0,238.0 L 1229.0,239.0 Z M 1028.0,235.0 L 1030.0,234.0 L 1034.0,240.0 L 1032.0,241.0 Z M 821.0,235.0 L 824.0,234.0 L 825.0,237.0 L 823.0,238.0 Z M 1116.0,233.0 L 1119.0,234.0 L 1119.0,241.0 L 1115.0,239.0 Z M 1251.0,232.0 L 1254.0,234.0 L 1252.0,237.0 L 1249.0,236.0 Z M 1214.0,233.0 L 1217.0,232.0 L 1218.0,235.0 L 1216.0,236.0 Z M 1094.0,233.0 L 1098.0,232.0 L 1102.0,236.0 L 1106.0,236.0 L 1107.0,239.0 L 1103.0,240.0 L 1098.0,236.0 L 1095.0,236.0 Z M 1233.0,229.0 L 1237.0,228.0 L 1238.0,231.0 L 1235.0,232.0 Z M 1106.0,228.0 L 1110.0,229.0 L 1110.0,236.0 L 1105.0,231.0 Z M 918.0,228.0 L 921.0,230.0 L 921.0,235.0 L 917.0,232.0 Z M 926.0,226.0 L 930.0,230.0 L 929.0,233.0 L 926.0,231.0 Z M 1218.0,226.0 L 1221.0,225.0 L 1222.0,228.0 L 1219.0,229.0 Z M 1092.0,226.0 L 1095.0,225.0 L 1099.0,229.0 L 1094.0,230.0 Z M 1246.0,224.0 L 1248.0,223.0 L 1250.0,226.0 L 1247.0,227.0 Z M 1107.0,223.0 L 1109.0,224.0 L 1108.0,228.0 L 1105.0,226.0 Z M 1240.0,221.0 L 1244.0,224.0 L 1243.0,227.0 L 1238.0,225.0 Z M 1225.0,223.0 L 1227.0,219.0 L 1234.0,221.0 L 1233.0,223.0 L 1229.0,224.0 Z M 1108.0,218.0 L 1110.0,217.0 L 1112.0,220.0 L 1109.0,222.0 Z M 1101.0,217.0 L 1103.0,218.0 L 1104.0,222.0 L 1102.0,226.0 L 1099.0,224.0 Z M 926.0,217.0 L 927.0,221.0 L 926.0,225.0 L 924.0,226.0 L 923.0,219.0 Z M 1019.0,219.0 L 1022.0,216.0 L 1025.0,217.0 L 1023.0,220.0 Z M 1244.0,213.0 L 1247.0,212.0 L 1249.0,216.0 L 1246.0,218.0 Z M 1230.0,212.0 L 1233.0,214.0 L 1233.0,220.0 L 1229.0,218.0 Z M 1014.0,213.0 L 1016.0,212.0 L 1018.0,215.0 L 1015.0,217.0 Z M 1240.0,211.0 L 1242.0,216.0 L 1239.0,219.0 L 1236.0,219.0 L 1235.0,217.0 Z M 1101.0,211.0 L 1102.0,216.0 L 1098.0,217.0 L 1097.0,215.0 Z M 1088.0,210.0 L 1091.0,209.0 L 1093.0,212.0 L 1089.0,213.0 Z M 913.0,209.0 L 916.0,208.0 L 918.0,211.0 L 916.0,212.0 Z M 1229.0,207.0 L 1231.0,206.0 L 1234.0,210.0 L 1231.0,212.0 Z M 1100.0,207.0 L 1103.0,206.0 L 1104.0,209.0 L 1101.0,210.0 Z M 1015.0,207.0 L 1020.0,206.0 L 1021.0,208.0 L 1016.0,209.0 Z M 1024.0,205.0 L 1027.0,206.0 L 1026.0,211.0 L 1024.0,210.0 Z M 1249.0,204.0 L 1251.0,207.0 L 1247.0,212.0 L 1245.0,212.0 L 1244.0,207.0 Z M 1238.0,204.0 L 1242.0,205.0 L 1241.0,210.0 L 1236.0,208.0 Z M 1093.0,205.0 L 1095.0,204.0 L 1097.0,207.0 L 1094.0,208.0 Z M 1226.0,203.0 L 1227.0,206.0 L 1224.0,209.0 L 1223.0,207.0 Z M 1035.0,202.0 L 1037.0,203.0 L 1036.0,206.0 L 1033.0,205.0 Z M 1103.0,201.0 L 1105.0,202.0 L 1104.0,205.0 L 1101.0,204.0 Z M 1110.0,201.0 L 1112.0,200.0 L 1114.0,203.0 L 1111.0,205.0 Z M 1016.0,196.0 L 1021.0,197.0 L 1021.0,205.0 L 1019.0,205.0 L 1018.0,201.0 L 1015.0,199.0 Z M 920.0,197.0 L 924.0,196.0 L 925.0,198.0 L 921.0,199.0 Z M 816.0,196.0 L 818.0,197.0 L 817.0,200.0 L 814.0,199.0 Z M 1095.0,197.0 L 1098.0,195.0 L 1102.0,196.0 L 1103.0,198.0 L 1098.0,201.0 Z M 1087.0,196.0 L 1090.0,195.0 L 1091.0,198.0 L 1089.0,199.0 Z M 909.0,196.0 L 911.0,195.0 L 915.0,201.0 L 912.0,202.0 Z M 825.0,191.0 L 826.0,194.0 L 823.0,196.0 L 822.0,194.0 Z M 1030.0,190.0 L 1031.0,194.0 L 1028.0,196.0 L 1030.0,201.0 L 1027.0,203.0 L 1025.0,200.0 L 1025.0,193.0 Z M 812.0,189.0 L 814.0,190.0 L 813.0,193.0 L 810.0,192.0 Z M 1239.0,189.0 L 1243.0,190.0 L 1246.0,188.0 L 1248.0,190.0 L 1248.0,194.0 L 1253.0,197.0 L 1250.0,202.0 L 1246.0,196.0 L 1242.0,203.0 L 1239.0,202.0 L 1242.0,195.0 L 1238.0,192.0 Z M 1253.0,188.0 L 1256.0,187.0 L 1257.0,190.0 L 1254.0,191.0 Z M 1100.0,185.0 L 1101.0,187.0 L 1099.0,194.0 L 1097.0,195.0 L 1095.0,189.0 Z M 1028.0,187.0 L 1027.0,189.0 L 1020.0,191.0 L 1018.0,190.0 L 1018.0,188.0 L 1024.0,184.0 Z M 813.0,184.0 L 815.0,185.0 L 814.0,188.0 L 811.0,187.0 Z M 1243.0,184.0 L 1246.0,183.0 L 1247.0,186.0 L 1245.0,187.0 Z M 1248.0,183.0 L 1253.0,183.0 L 1254.0,187.0 L 1252.0,188.0 Z M 1238.0,182.0 L 1241.0,184.0 L 1240.0,188.0 L 1237.0,186.0 Z M 1030.0,183.0 L 1033.0,182.0 L 1036.0,184.0 L 1037.0,189.0 L 1031.0,190.0 Z M 822.0,182.0 L 823.0,184.0 L 818.0,188.0 L 818.0,184.0 Z M 1090.0,181.0 L 1093.0,184.0 L 1091.0,187.0 L 1089.0,186.0 Z M 916.0,181.0 L 919.0,182.0 L 917.0,186.0 L 915.0,185.0 Z M 1021.0,179.0 L 1028.0,179.0 L 1029.0,183.0 L 1027.0,184.0 L 1022.0,182.0 Z M 812.0,177.0 L 814.0,176.0 L 816.0,179.0 L 813.0,180.0 Z M 1036.0,175.0 L 1039.0,174.0 L 1040.0,177.0 L 1037.0,178.0 Z M 1023.0,173.0 L 1025.0,174.0 L 1024.0,178.0 L 1021.0,177.0 Z M 1248.0,171.0 L 1250.0,172.0 L 1249.0,179.0 L 1246.0,178.0 L 1246.0,173.0 Z M 1230.0,172.0 L 1232.0,171.0 L 1234.0,174.0 L 1231.0,175.0 Z M 1237.0,169.0 L 1241.0,171.0 L 1241.0,177.0 L 1238.0,176.0 L 1236.0,171.0 Z M 1019.0,172.0 L 1020.0,169.0 L 1023.0,170.0 L 1021.0,173.0 Z M 819.0,169.0 L 823.0,168.0 L 824.0,170.0 L 821.0,172.0 Z M 813.0,168.0 L 817.0,170.0 L 816.0,175.0 L 813.0,174.0 Z M 1036.0,167.0 L 1038.0,168.0 L 1037.0,171.0 L 1034.0,170.0 Z M 1246.0,165.0 L 1247.0,170.0 L 1244.0,172.0 L 1243.0,169.0 Z M 808.0,166.0 L 811.0,165.0 L 812.0,168.0 L 809.0,169.0 Z M 1023.0,162.0 L 1028.0,166.0 L 1028.0,174.0 L 1026.0,173.0 L 1026.0,169.0 L 1022.0,164.0 Z M 1035.0,161.0 L 1037.0,162.0 L 1036.0,165.0 L 1033.0,164.0 Z M 816.0,161.0 L 820.0,160.0 L 821.0,162.0 L 817.0,163.0 Z M 1230.0,160.0 L 1233.0,159.0 L 1239.0,168.0 L 1236.0,169.0 Z M 836.0,159.0 L 838.0,160.0 L 837.0,163.0 L 834.0,162.0 Z M 1216.0,162.0 L 1217.0,159.0 L 1225.0,159.0 L 1222.0,163.0 Z M 1161.0,157.0 L 1174.0,158.0 L 1185.0,163.0 L 1196.0,175.0 L 1201.0,191.0 L 1200.0,205.0 L 1194.0,219.0 L 1187.0,227.0 L 1171.0,235.0 L 1153.0,234.0 L 1141.0,227.0 L 1131.0,213.0 L 1128.0,200.0 L 1129.0,187.0 L 1137.0,171.0 L 1147.0,162.0 Z M 1237.0,160.0 L 1240.0,159.0 L 1242.0,161.0 L 1243.0,157.0 L 1246.0,156.0 L 1248.0,158.0 L 1246.0,162.0 L 1248.0,164.0 L 1239.0,164.0 Z M 814.0,156.0 L 816.0,157.0 L 815.0,163.0 L 812.0,162.0 Z M 828.0,156.0 L 831.0,155.0 L 832.0,158.0 L 829.0,159.0 Z M 1252.0,154.0 L 1255.0,155.0 L 1255.0,162.0 L 1253.0,164.0 L 1250.0,163.0 Z M 1213.0,154.0 L 1215.0,155.0 L 1214.0,159.0 L 1211.0,157.0 Z M 1233.0,154.0 L 1235.0,153.0 L 1237.0,156.0 L 1234.0,157.0 Z M 1228.0,154.0 L 1231.0,153.0 L 1232.0,156.0 L 1229.0,157.0 Z M 1023.0,153.0 L 1024.0,157.0 L 1020.0,161.0 L 1018.0,157.0 Z M 818.0,154.0 L 823.0,153.0 L 824.0,155.0 L 820.0,157.0 Z M 835.0,150.0 L 838.0,149.0 L 839.0,152.0 L 837.0,153.0 Z M 1224.0,150.0 L 1226.0,148.0 L 1231.0,148.0 L 1234.0,152.0 L 1227.0,153.0 Z M 1015.0,149.0 L 1019.0,148.0 L 1020.0,150.0 L 1017.0,152.0 Z M 1246.0,148.0 L 1249.0,147.0 L 1250.0,151.0 L 1248.0,152.0 Z M 1246.0,145.0 L 1247.0,147.0 L 1243.0,149.0 L 1244.0,155.0 L 1241.0,156.0 L 1239.0,154.0 L 1239.0,149.0 Z M 840.0,146.0 L 842.0,143.0 L 848.0,144.0 L 844.0,147.0 Z M 1230.0,141.0 L 1232.0,142.0 L 1231.0,146.0 L 1228.0,144.0 Z M 1025.0,142.0 L 1029.0,141.0 L 1031.0,145.0 L 1027.0,147.0 Z M 814.0,140.0 L 817.0,144.0 L 816.0,149.0 L 819.0,150.0 L 818.0,154.0 L 816.0,154.0 L 812.0,149.0 L 811.0,143.0 Z M 875.0,139.0 L 878.0,140.0 L 876.0,143.0 L 873.0,142.0 Z M 853.0,138.0 L 857.0,139.0 L 857.0,145.0 L 855.0,147.0 L 852.0,146.0 Z M 886.0,140.0 L 887.0,137.0 L 890.0,138.0 L 888.0,141.0 Z M 1239.0,137.0 L 1241.0,136.0 L 1243.0,139.0 L 1240.0,140.0 Z M 856.0,137.0 L 864.0,136.0 L 868.0,140.0 L 861.0,141.0 Z M 821.0,138.0 L 823.0,140.0 L 824.0,137.0 L 827.0,136.0 L 828.0,141.0 L 833.0,141.0 L 835.0,148.0 L 832.0,153.0 L 825.0,144.0 L 820.0,145.0 L 818.0,143.0 Z M 811.0,137.0 L 814.0,136.0 L 815.0,139.0 L 812.0,140.0 Z M 1024.0,136.0 L 1028.0,135.0 L 1029.0,137.0 L 1031.0,135.0 L 1032.0,138.0 L 1028.0,141.0 L 1024.0,138.0 Z M 1038.0,134.0 L 1041.0,139.0 L 1038.0,143.0 L 1042.0,146.0 L 1038.0,147.0 L 1035.0,154.0 L 1031.0,156.0 L 1029.0,154.0 L 1029.0,150.0 L 1031.0,149.0 L 1033.0,151.0 L 1035.0,147.0 L 1035.0,137.0 Z M 894.0,133.0 L 896.0,134.0 L 895.0,137.0 L 892.0,136.0 Z M 877.0,134.0 L 880.0,133.0 L 884.0,137.0 L 880.0,138.0 Z M 1247.0,133.0 L 1249.0,132.0 L 1251.0,135.0 L 1248.0,136.0 Z M 1032.0,131.0 L 1036.0,130.0 L 1037.0,132.0 L 1033.0,133.0 Z M 863.0,132.0 L 869.0,130.0 L 871.0,134.0 L 868.0,136.0 Z M 845.0,129.0 L 847.0,132.0 L 844.0,132.0 L 841.0,135.0 L 841.0,139.0 L 837.0,143.0 L 835.0,141.0 L 836.0,134.0 Z M 1005.0,126.0 L 1008.0,128.0 L 1006.0,132.0 L 1004.0,131.0 Z M 856.0,128.0 L 859.0,126.0 L 862.0,130.0 L 857.0,131.0 Z M 806.0,127.0 L 808.0,126.0 L 811.0,130.0 L 808.0,132.0 Z M 885.0,126.0 L 888.0,125.0 L 889.0,128.0 L 887.0,129.0 Z M 836.0,125.0 L 837.0,130.0 L 830.0,135.0 L 830.0,130.0 Z M 818.0,126.0 L 822.0,126.0 L 823.0,130.0 L 818.0,131.0 Z M 1022.0,124.0 L 1024.0,125.0 L 1023.0,128.0 L 1020.0,127.0 Z M 868.0,127.0 L 869.0,124.0 L 872.0,125.0 L 870.0,128.0 Z M 812.0,120.0 L 813.0,122.0 L 809.0,125.0 L 808.0,122.0 Z M 822.0,119.0 L 823.0,115.0 L 829.0,116.0 L 825.0,120.0 Z M 1119.0,115.0 L 1115.0,119.0 L 1111.0,119.0 L 1114.0,115.0 Z M 811.0,115.0 L 817.0,112.0 L 820.0,116.0 L 818.0,118.0 L 813.0,118.0 Z M 877.0,117.0 L 892.0,108.0 L 912.0,108.0 L 923.0,113.0 L 934.0,125.0 L 936.0,132.0 L 908.0,119.0 L 897.0,117.0 L 878.0,119.0 Z M 1190.0,123.0 L 1188.0,125.0 L 1167.0,118.0 L 1150.0,118.0 L 1132.0,123.0 L 1107.0,139.0 L 1089.0,160.0 L 1083.0,172.0 L 1080.0,172.0 L 1084.0,155.0 L 1096.0,135.0 L 1114.0,119.0 L 1129.0,111.0 L 1148.0,106.0 L 1161.0,106.0 L 1177.0,111.0 Z M 824.0,110.0 L 827.0,109.0 L 828.0,106.0 L 839.0,108.0 L 847.0,116.0 L 848.0,122.0 L 846.0,124.0 L 849.0,125.0 L 855.0,123.0 L 857.0,126.0 L 852.0,128.0 L 853.0,132.0 L 851.0,133.0 L 848.0,128.0 L 843.0,128.0 L 841.0,126.0 L 843.0,120.0 L 842.0,117.0 L 839.0,117.0 L 839.0,122.0 L 836.0,124.0 L 832.0,121.0 L 835.0,119.0 L 838.0,113.0 L 837.0,112.0 L 834.0,113.0 L 831.0,110.0 L 826.0,113.0 Z M 946.0,131.0 L 961.0,111.0 L 974.0,103.0 L 987.0,99.0 L 1001.0,99.0 L 1016.0,104.0 L 1028.0,115.0 L 1032.0,124.0 L 1030.0,126.0 L 1007.0,113.0 L 986.0,112.0 L 963.0,121.0 L 949.0,132.0 Z M 1262.0,10.0 L 1248.0,17.0 L 1238.0,28.0 L 1233.0,40.0 L 1233.0,56.0 L 1237.0,66.0 L 1248.0,79.0 L 1270.0,92.0 L 1271.0,105.0 L 1266.0,118.0 L 1266.0,126.0 L 1271.0,134.0 L 1284.0,136.0 L 1308.0,116.0 L 1321.0,94.0 L 1327.0,71.0 L 1326.0,50.0 L 1321.0,36.0 L 1307.0,19.0 L 1287.0,10.0 Z M 1264.0,22.0 L 1287.0,21.0 L 1304.0,31.0 L 1314.0,49.0 L 1313.0,68.0 L 1310.0,68.0 L 1303.0,48.0 L 1291.0,35.0 L 1281.0,29.0 L 1266.0,25.0 Z" fill="#802800" fill-rule="evenodd"/>
<path d="M 673.0,381.0 L 654.0,390.0 L 646.0,400.0 L 643.0,409.0 L 642.0,535.0 L 648.0,554.0 L 657.0,563.0 L 670.0,568.0 L 684.0,568.0 L 701.0,561.0 L 708.0,554.0 L 714.0,538.0 L 714.0,411.0 L 708.0,396.0 L 699.0,387.0 L 688.0,382.0 Z M 672.0,540.0 L 673.0,537.0 L 676.0,538.0 L 674.0,541.0 Z M 675.0,527.0 L 678.0,528.0 L 677.0,532.0 L 673.0,530.0 Z M 663.0,527.0 L 664.0,530.0 L 661.0,533.0 L 660.0,531.0 Z M 678.0,521.0 L 680.0,522.0 L 679.0,527.0 L 677.0,526.0 Z M 688.0,519.0 L 691.0,522.0 L 689.0,526.0 L 687.0,525.0 Z M 668.0,522.0 L 669.0,519.0 L 673.0,520.0 L 670.0,523.0 Z M 679.0,517.0 L 680.0,514.0 L 683.0,515.0 L 681.0,518.0 Z M 679.0,506.0 L 680.0,508.0 L 677.0,511.0 L 676.0,509.0 Z M 687.0,502.0 L 690.0,505.0 L 688.0,508.0 L 685.0,507.0 Z M 669.0,501.0 L 672.0,500.0 L 673.0,503.0 L 671.0,504.0 Z M 692.0,492.0 L 694.0,493.0 L 693.0,496.0 L 690.0,495.0 Z M 681.0,491.0 L 685.0,493.0 L 683.0,498.0 L 679.0,494.0 Z M 687.0,482.0 L 690.0,484.0 L 688.0,489.0 L 685.0,486.0 Z M 679.0,475.0 L 682.0,474.0 L 683.0,477.0 L 680.0,479.0 Z M 693.0,472.0 L 694.0,477.0 L 690.0,479.0 L 690.0,474.0 Z M 666.0,467.0 L 669.0,466.0 L 670.0,469.0 L 667.0,470.0 Z M 687.0,466.0 L 690.0,465.0 L 691.0,469.0 L 689.0,470.0 Z M 673.0,461.0 L 676.0,463.0 L 675.0,468.0 L 672.0,464.0 Z M 665.0,455.0 L 667.0,456.0 L 666.0,459.0 L 663.0,458.0 Z M 674.0,455.0 L 677.0,454.0 L 678.0,457.0 L 675.0,459.0 Z M 665.0,449.0 L 667.0,448.0 L 671.0,453.0 L 668.0,454.0 Z M 675.0,448.0 L 679.0,447.0 L 680.0,451.0 L 676.0,453.0 Z M 666.0,440.0 L 669.0,439.0 L 670.0,442.0 L 667.0,443.0 Z M 684.0,438.0 L 683.0,448.0 L 681.0,449.0 L 678.0,444.0 L 679.0,441.0 Z M 682.0,431.0 L 684.0,432.0 L 683.0,435.0 L 687.0,437.0 L 686.0,439.0 L 679.0,436.0 Z M 666.0,430.0 L 668.0,431.0 L 667.0,434.0 L 664.0,433.0 Z M 677.0,429.0 L 678.0,434.0 L 675.0,436.0 L 676.0,442.0 L 673.0,443.0 L 671.0,441.0 L 672.0,435.0 Z M 694.0,428.0 L 695.0,433.0 L 692.0,435.0 L 691.0,430.0 Z M 666.0,424.0 L 669.0,423.0 L 671.0,427.0 L 668.0,428.0 Z M 681.0,423.0 L 683.0,422.0 L 686.0,424.0 L 689.0,422.0 L 690.0,424.0 L 688.0,429.0 L 684.0,430.0 Z M 672.0,420.0 L 675.0,419.0 L 679.0,424.0 L 677.0,425.0 L 673.0,423.0 Z M 668.0,412.0 L 671.0,414.0 L 670.0,418.0 L 667.0,417.0 Z M 683.0,409.0 L 685.0,408.0 L 687.0,412.0 L 684.0,413.0 Z M 673.0,407.0 L 676.0,408.0 L 674.0,412.0 L 671.0,411.0 Z M 964.0,363.0 L 938.0,370.0 L 915.0,382.0 L 896.0,399.0 L 880.0,420.0 L 869.0,460.0 L 869.0,485.0 L 876.0,514.0 L 885.0,530.0 L 903.0,550.0 L 919.0,561.0 L 944.0,571.0 L 965.0,575.0 L 996.0,575.0 L 1045.0,563.0 L 1064.0,552.0 L 1076.0,537.0 L 1075.0,520.0 L 1066.0,510.0 L 1048.0,506.0 L 1018.0,517.0 L 981.0,520.0 L 957.0,511.0 L 946.0,498.0 L 944.0,490.0 L 1038.0,489.0 L 1068.0,481.0 L 1079.0,469.0 L 1084.0,453.0 L 1084.0,440.0 L 1079.0,419.0 L 1065.0,396.0 L 1037.0,374.0 L 1001.0,363.0 Z M 977.0,545.0 L 983.0,544.0 L 984.0,547.0 L 978.0,548.0 Z M 960.0,543.0 L 964.0,542.0 L 969.0,546.0 L 969.0,548.0 L 966.0,549.0 L 964.0,546.0 L 961.0,546.0 Z M 956.0,542.0 L 960.0,544.0 L 958.0,548.0 L 954.0,546.0 Z M 1032.0,543.0 L 1033.0,540.0 L 1036.0,541.0 L 1034.0,544.0 Z M 988.0,541.0 L 994.0,539.0 L 996.0,545.0 L 994.0,546.0 L 992.0,543.0 L 989.0,544.0 Z M 943.0,540.0 L 950.0,540.0 L 951.0,543.0 L 948.0,544.0 Z M 938.0,540.0 L 942.0,539.0 L 943.0,541.0 L 940.0,543.0 Z M 974.0,539.0 L 977.0,538.0 L 979.0,541.0 L 975.0,542.0 Z M 1041.0,537.0 L 1044.0,538.0 L 1042.0,541.0 L 1039.0,540.0 Z M 974.0,535.0 L 975.0,537.0 L 967.0,543.0 L 966.0,541.0 L 969.0,537.0 Z M 959.0,535.0 L 964.0,534.0 L 965.0,537.0 L 961.0,538.0 Z M 927.0,535.0 L 929.0,534.0 L 931.0,537.0 L 928.0,538.0 Z M 1027.0,536.0 L 1028.0,533.0 L 1032.0,534.0 L 1030.0,537.0 Z M 954.0,534.0 L 958.0,533.0 L 959.0,536.0 L 955.0,537.0 Z M 1047.0,535.0 L 1048.0,532.0 L 1051.0,533.0 L 1049.0,536.0 Z M 943.0,534.0 L 948.0,534.0 L 946.0,532.0 L 949.0,531.0 L 954.0,536.0 L 949.0,536.0 L 946.0,538.0 Z M 939.0,529.0 L 943.0,528.0 L 944.0,530.0 L 940.0,531.0 Z M 920.0,527.0 L 922.0,528.0 L 921.0,533.0 L 919.0,532.0 Z M 956.0,525.0 L 958.0,526.0 L 957.0,529.0 L 954.0,528.0 Z M 926.0,526.0 L 929.0,525.0 L 932.0,529.0 L 929.0,530.0 Z M 949.0,524.0 L 951.0,523.0 L 953.0,526.0 L 950.0,527.0 Z M 936.0,523.0 L 939.0,522.0 L 942.0,525.0 L 937.0,526.0 Z M 926.0,518.0 L 930.0,521.0 L 929.0,525.0 L 927.0,525.0 L 924.0,521.0 Z M 932.0,516.0 L 935.0,515.0 L 936.0,518.0 L 933.0,519.0 Z M 913.0,515.0 L 916.0,514.0 L 918.0,518.0 L 915.0,519.0 Z M 909.0,512.0 L 912.0,514.0 L 911.0,517.0 L 907.0,515.0 Z M 922.0,504.0 L 924.0,505.0 L 922.0,507.0 L 925.0,510.0 L 925.0,516.0 L 920.0,513.0 L 918.0,508.0 Z M 928.0,504.0 L 930.0,503.0 L 932.0,506.0 L 929.0,508.0 Z M 910.0,502.0 L 915.0,505.0 L 915.0,508.0 L 912.0,511.0 L 907.0,505.0 Z M 897.0,498.0 L 900.0,497.0 L 902.0,501.0 L 899.0,502.0 Z M 916.0,492.0 L 918.0,492.0 L 922.0,498.0 L 921.0,501.0 L 916.0,499.0 L 914.0,495.0 Z M 921.0,488.0 L 924.0,487.0 L 925.0,490.0 L 922.0,491.0 Z M 915.0,485.0 L 918.0,487.0 L 917.0,490.0 L 913.0,489.0 Z M 906.0,483.0 L 910.0,487.0 L 909.0,490.0 L 906.0,489.0 L 910.0,494.0 L 910.0,498.0 L 908.0,500.0 L 901.0,492.0 Z M 915.0,479.0 L 918.0,481.0 L 917.0,484.0 L 913.0,482.0 Z M 888.0,477.0 L 891.0,476.0 L 894.0,481.0 L 892.0,482.0 Z M 912.0,478.0 L 913.0,475.0 L 916.0,476.0 L 914.0,479.0 Z M 904.0,472.0 L 905.0,481.0 L 901.0,484.0 L 900.0,474.0 Z M 913.0,471.0 L 914.0,474.0 L 910.0,476.0 L 909.0,474.0 Z M 893.0,471.0 L 894.0,468.0 L 897.0,469.0 L 895.0,472.0 Z M 907.0,466.0 L 910.0,465.0 L 912.0,468.0 L 909.0,469.0 Z M 903.0,462.0 L 904.0,468.0 L 900.0,469.0 L 899.0,465.0 Z M 889.0,463.0 L 891.0,462.0 L 893.0,465.0 L 890.0,466.0 Z M 910.0,458.0 L 913.0,459.0 L 911.0,464.0 L 908.0,462.0 Z M 893.0,454.0 L 898.0,453.0 L 901.0,456.0 L 895.0,458.0 Z M 904.0,454.0 L 906.0,447.0 L 913.0,450.0 L 906.0,455.0 Z M 898.0,440.0 L 901.0,441.0 L 901.0,447.0 L 897.0,446.0 L 899.0,444.0 L 897.0,442.0 Z M 918.0,437.0 L 922.0,438.0 L 920.0,443.0 L 916.0,440.0 Z M 908.0,437.0 L 910.0,437.0 L 912.0,441.0 L 909.0,446.0 L 906.0,446.0 L 905.0,444.0 Z M 926.0,433.0 L 928.0,434.0 L 927.0,437.0 L 924.0,436.0 Z M 903.0,433.0 L 908.0,431.0 L 910.0,436.0 L 904.0,437.0 Z M 1034.0,427.0 L 1037.0,428.0 L 1035.0,434.0 L 1033.0,433.0 Z M 917.0,426.0 L 921.0,429.0 L 918.0,435.0 L 915.0,433.0 L 915.0,428.0 Z M 1036.0,423.0 L 1039.0,422.0 L 1040.0,425.0 L 1038.0,426.0 Z M 946.0,443.0 L 959.0,428.0 L 981.0,422.0 L 999.0,428.0 L 1009.0,439.0 L 1011.0,447.0 L 1008.0,449.0 L 948.0,448.0 Z M 922.0,421.0 L 925.0,420.0 L 927.0,423.0 L 924.0,424.0 Z M 926.0,419.0 L 929.0,418.0 L 930.0,421.0 L 928.0,422.0 Z M 919.0,416.0 L 922.0,417.0 L 920.0,420.0 L 924.0,425.0 L 923.0,427.0 L 918.0,424.0 L 917.0,420.0 Z M 1020.0,412.0 L 1023.0,411.0 L 1028.0,416.0 L 1026.0,417.0 Z M 1010.0,413.0 L 1011.0,410.0 L 1014.0,411.0 L 1012.0,414.0 Z M 941.0,413.0 L 944.0,408.0 L 948.0,409.0 L 946.0,413.0 Z M 939.0,407.0 L 940.0,413.0 L 932.0,419.0 L 932.0,412.0 L 936.0,411.0 L 936.0,408.0 Z M 925.0,407.0 L 927.0,408.0 L 926.0,411.0 L 923.0,410.0 Z M 1008.0,406.0 L 1011.0,405.0 L 1014.0,409.0 L 1012.0,410.0 Z M 1024.0,404.0 L 1025.0,406.0 L 1021.0,410.0 L 1019.0,406.0 Z M 929.0,406.0 L 930.0,403.0 L 934.0,404.0 L 932.0,407.0 Z M 1030.0,402.0 L 1033.0,403.0 L 1031.0,406.0 L 1028.0,405.0 Z M 950.0,401.0 L 953.0,402.0 L 951.0,405.0 L 948.0,404.0 Z M 936.0,400.0 L 939.0,399.0 L 941.0,402.0 L 937.0,404.0 Z M 960.0,398.0 L 961.0,401.0 L 955.0,404.0 L 954.0,401.0 Z M 941.0,398.0 L 944.0,397.0 L 946.0,400.0 L 942.0,401.0 Z M 1004.0,398.0 L 1007.0,396.0 L 1010.0,400.0 L 1006.0,401.0 Z M 1019.0,394.0 L 1022.0,393.0 L 1023.0,396.0 L 1020.0,398.0 Z M 992.0,394.0 L 994.0,392.0 L 997.0,393.0 L 996.0,396.0 L 993.0,396.0 Z M 963.0,392.0 L 966.0,391.0 L 967.0,394.0 L 964.0,395.0 Z M 947.0,391.0 L 949.0,390.0 L 951.0,393.0 L 948.0,395.0 Z M 957.0,390.0 L 959.0,389.0 L 961.0,392.0 L 958.0,393.0 Z M 967.0,376.0 L 1002.0,374.0 L 1037.0,386.0 L 1048.0,394.0 L 1061.0,409.0 L 1067.0,421.0 L 1069.0,439.0 L 1066.0,439.0 L 1053.0,416.0 L 1028.0,394.0 L 1007.0,385.0 L 969.0,379.0 Z M 791.0,304.0 L 774.0,307.0 L 759.0,318.0 L 751.0,337.0 L 751.0,372.0 L 732.0,382.0 L 724.0,391.0 L 721.0,399.0 L 721.0,414.0 L 727.0,425.0 L 737.0,433.0 L 752.0,436.0 L 751.0,536.0 L 753.0,546.0 L 764.0,562.0 L 781.0,569.0 L 793.0,569.0 L 806.0,565.0 L 816.0,557.0 L 823.0,544.0 L 825.0,436.0 L 860.0,433.0 L 875.0,422.0 L 880.0,410.0 L 878.0,392.0 L 869.0,381.0 L 859.0,376.0 L 829.0,374.0 L 829.0,336.0 L 823.0,321.0 L 812.0,310.0 Z M 777.0,544.0 L 782.0,544.0 L 784.0,547.0 L 781.0,548.0 Z M 788.0,537.0 L 790.0,538.0 L 789.0,542.0 L 786.0,541.0 Z M 796.0,531.0 L 798.0,535.0 L 794.0,538.0 L 793.0,535.0 Z M 782.0,530.0 L 785.0,529.0 L 787.0,532.0 L 783.0,533.0 Z M 790.0,519.0 L 793.0,520.0 L 793.0,527.0 L 789.0,525.0 Z M 783.0,515.0 L 785.0,516.0 L 784.0,520.0 L 782.0,519.0 Z M 794.0,507.0 L 798.0,511.0 L 797.0,514.0 L 794.0,513.0 Z M 787.0,504.0 L 788.0,509.0 L 785.0,511.0 L 783.0,507.0 Z M 794.0,493.0 L 795.0,496.0 L 791.0,502.0 L 790.0,498.0 Z M 776.0,493.0 L 779.0,495.0 L 777.0,499.0 L 774.0,497.0 Z M 799.0,487.0 L 802.0,489.0 L 802.0,496.0 L 797.0,494.0 Z M 779.0,488.0 L 782.0,487.0 L 783.0,490.0 L 780.0,491.0 Z M 787.0,486.0 L 789.0,487.0 L 788.0,495.0 L 785.0,492.0 Z M 787.0,485.0 L 790.0,481.0 L 794.0,482.0 L 791.0,486.0 Z M 779.0,480.0 L 783.0,478.0 L 785.0,481.0 L 780.0,482.0 Z M 788.0,477.0 L 791.0,476.0 L 793.0,479.0 L 789.0,480.0 Z M 798.0,474.0 L 802.0,476.0 L 802.0,482.0 L 800.0,482.0 L 797.0,478.0 Z M 781.0,474.0 L 783.0,473.0 L 785.0,477.0 L 782.0,478.0 Z M 793.0,467.0 L 798.0,471.0 L 797.0,474.0 L 791.0,470.0 Z M 796.0,462.0 L 797.0,459.0 L 800.0,460.0 L 798.0,463.0 Z M 782.0,457.0 L 784.0,456.0 L 786.0,459.0 L 783.0,461.0 Z M 792.0,453.0 L 795.0,452.0 L 798.0,457.0 L 796.0,458.0 Z M 782.0,449.0 L 784.0,448.0 L 786.0,452.0 L 784.0,453.0 Z M 787.0,442.0 L 788.0,439.0 L 791.0,440.0 L 789.0,443.0 Z M 796.0,438.0 L 798.0,439.0 L 797.0,443.0 L 795.0,442.0 Z M 788.0,427.0 L 792.0,426.0 L 793.0,430.0 L 791.0,431.0 Z M 797.0,424.0 L 800.0,423.0 L 801.0,426.0 L 799.0,427.0 Z M 783.0,421.0 L 785.0,422.0 L 784.0,426.0 L 781.0,425.0 Z M 798.0,419.0 L 799.0,416.0 L 802.0,417.0 L 800.0,420.0 Z M 791.0,416.0 L 792.0,418.0 L 787.0,423.0 L 785.0,420.0 Z M 792.0,410.0 L 795.0,409.0 L 798.0,413.0 L 795.0,414.0 Z M 815.0,409.0 L 818.0,406.0 L 820.0,407.0 L 817.0,410.0 Z M 813.0,406.0 L 814.0,408.0 L 808.0,414.0 L 810.0,418.0 L 807.0,419.0 L 805.0,416.0 L 805.0,411.0 Z M 791.0,406.0 L 792.0,408.0 L 789.0,411.0 L 788.0,408.0 Z M 757.0,405.0 L 760.0,403.0 L 763.0,406.0 L 758.0,407.0 Z M 801.0,403.0 L 803.0,402.0 L 805.0,405.0 L 802.0,406.0 Z M 831.0,402.0 L 834.0,401.0 L 836.0,404.0 L 833.0,405.0 Z M 793.0,399.0 L 797.0,398.0 L 798.0,400.0 L 794.0,401.0 Z M 771.0,404.0 L 776.0,398.0 L 778.0,398.0 L 781.0,402.0 L 780.0,404.0 L 776.0,402.0 L 773.0,405.0 Z M 832.0,398.0 L 836.0,397.0 L 837.0,399.0 L 833.0,400.0 Z M 818.0,397.0 L 822.0,399.0 L 821.0,403.0 L 816.0,400.0 Z M 840.0,398.0 L 843.0,396.0 L 845.0,397.0 L 844.0,400.0 L 841.0,400.0 Z M 761.0,401.0 L 763.0,395.0 L 768.0,397.0 L 763.0,402.0 Z M 826.0,393.0 L 827.0,396.0 L 823.0,399.0 L 822.0,396.0 Z M 802.0,391.0 L 804.0,390.0 L 810.0,396.0 L 806.0,397.0 Z M 797.0,388.0 L 801.0,387.0 L 802.0,390.0 L 799.0,391.0 Z M 789.0,384.0 L 794.0,386.0 L 792.0,395.0 L 789.0,393.0 Z M 779.0,381.0 L 782.0,386.0 L 777.0,390.0 L 775.0,388.0 L 775.0,384.0 Z M 793.0,379.0 L 797.0,379.0 L 799.0,383.0 L 797.0,384.0 Z M 789.0,374.0 L 790.0,376.0 L 786.0,382.0 L 784.0,382.0 L 780.0,377.0 L 781.0,375.0 L 785.0,377.0 Z M 789.0,373.0 L 791.0,371.0 L 795.0,372.0 L 794.0,375.0 L 790.0,375.0 Z M 781.0,366.0 L 785.0,368.0 L 783.0,373.0 L 780.0,369.0 Z M 793.0,359.0 L 794.0,362.0 L 791.0,366.0 L 787.0,362.0 Z M 790.0,351.0 L 791.0,353.0 L 787.0,356.0 L 786.0,353.0 Z M 779.0,346.0 L 783.0,350.0 L 782.0,353.0 L 778.0,348.0 Z M 783.0,343.0 L 786.0,342.0 L 787.0,345.0 L 784.0,346.0 Z M 772.0,343.0 L 775.0,342.0 L 776.0,345.0 L 773.0,346.0 Z M 788.0,319.0 L 797.0,319.0 L 806.0,323.0 L 816.0,335.0 L 818.0,365.0 L 812.0,385.0 L 810.0,384.0 L 805.0,339.0 L 800.0,330.0 L 787.0,321.0 Z M 431.0,300.0 L 416.0,317.0 L 410.0,342.0 L 410.0,541.0 L 416.0,556.0 L 427.0,567.0 L 443.0,573.0 L 461.0,571.0 L 480.0,556.0 L 490.0,563.0 L 518.0,571.0 L 551.0,570.0 L 585.0,557.0 L 599.0,547.0 L 613.0,532.0 L 623.0,517.0 L 631.0,496.0 L 634.0,480.0 L 633.0,448.0 L 628.0,427.0 L 619.0,409.0 L 593.0,383.0 L 563.0,370.0 L 526.0,368.0 L 497.0,377.0 L 496.0,329.0 L 488.0,309.0 L 477.0,299.0 L 464.0,294.0 L 446.0,294.0 Z M 441.0,547.0 L 442.0,544.0 L 445.0,545.0 L 443.0,548.0 Z M 530.0,543.0 L 533.0,541.0 L 535.0,542.0 L 534.0,545.0 L 531.0,545.0 Z M 455.0,538.0 L 456.0,541.0 L 452.0,543.0 L 451.0,541.0 Z M 524.0,535.0 L 527.0,534.0 L 530.0,538.0 L 527.0,539.0 Z M 502.0,535.0 L 505.0,534.0 L 507.0,537.0 L 505.0,538.0 Z M 535.0,537.0 L 538.0,532.0 L 542.0,533.0 L 538.0,538.0 Z M 514.0,533.0 L 520.0,532.0 L 521.0,534.0 L 517.0,536.0 Z M 444.0,533.0 L 446.0,532.0 L 449.0,537.0 L 446.0,538.0 Z M 432.0,533.0 L 437.0,533.0 L 441.0,536.0 L 441.0,538.0 L 438.0,540.0 Z M 525.0,528.0 L 526.0,530.0 L 521.0,533.0 L 520.0,530.0 Z M 532.0,528.0 L 534.0,527.0 L 538.0,530.0 L 535.0,532.0 Z M 511.0,528.0 L 515.0,527.0 L 516.0,530.0 L 512.0,531.0 Z M 472.0,525.0 L 475.0,524.0 L 476.0,527.0 L 473.0,528.0 Z M 554.0,524.0 L 551.0,528.0 L 547.0,527.0 L 549.0,524.0 Z M 515.0,524.0 L 517.0,523.0 L 519.0,526.0 L 516.0,527.0 Z M 496.0,524.0 L 499.0,523.0 L 502.0,527.0 L 500.0,528.0 Z M 454.0,523.0 L 458.0,525.0 L 456.0,529.0 L 452.0,527.0 Z M 446.0,523.0 L 449.0,525.0 L 447.0,528.0 L 444.0,527.0 Z M 467.0,520.0 L 469.0,515.0 L 473.0,517.0 L 470.0,521.0 Z M 462.0,515.0 L 464.0,521.0 L 460.0,525.0 L 458.0,522.0 L 461.0,520.0 L 460.0,516.0 Z M 432.0,514.0 L 435.0,515.0 L 433.0,518.0 L 430.0,517.0 Z M 479.0,509.0 L 481.0,513.0 L 476.0,517.0 L 474.0,511.0 Z M 590.0,506.0 L 593.0,507.0 L 591.0,512.0 L 588.0,511.0 Z M 473.0,505.0 L 476.0,504.0 L 478.0,507.0 L 475.0,508.0 Z M 464.0,505.0 L 466.0,504.0 L 468.0,508.0 L 466.0,509.0 Z M 458.0,507.0 L 459.0,504.0 L 462.0,505.0 L 460.0,508.0 Z M 435.0,504.0 L 438.0,506.0 L 437.0,510.0 L 434.0,507.0 Z M 584.0,504.0 L 587.0,503.0 L 589.0,507.0 L 586.0,508.0 Z M 459.0,501.0 L 462.0,499.0 L 465.0,500.0 L 464.0,503.0 L 460.0,503.0 Z M 591.0,499.0 L 588.0,502.0 L 585.0,501.0 L 586.0,499.0 Z M 439.0,497.0 L 442.0,496.0 L 443.0,500.0 L 441.0,501.0 Z M 601.0,494.0 L 603.0,493.0 L 605.0,496.0 L 602.0,497.0 Z M 436.0,493.0 L 437.0,495.0 L 434.0,499.0 L 432.0,496.0 Z M 595.0,491.0 L 597.0,492.0 L 596.0,499.0 L 593.0,498.0 L 593.0,493.0 Z M 449.0,484.0 L 452.0,485.0 L 454.0,494.0 L 457.0,496.0 L 456.0,498.0 L 450.0,494.0 L 451.0,491.0 L 448.0,488.0 Z M 588.0,484.0 L 590.0,483.0 L 593.0,486.0 L 589.0,488.0 Z M 439.0,484.0 L 440.0,481.0 L 444.0,482.0 L 442.0,485.0 Z M 449.0,476.0 L 443.0,481.0 L 440.0,480.0 L 445.0,474.0 Z M 596.0,473.0 L 599.0,476.0 L 598.0,478.0 L 594.0,476.0 Z M 456.0,470.0 L 457.0,472.0 L 455.0,475.0 L 451.0,477.0 L 449.0,472.0 Z M 457.0,467.0 L 459.0,466.0 L 461.0,470.0 L 459.0,471.0 Z M 437.0,465.0 L 440.0,464.0 L 442.0,467.0 L 439.0,468.0 Z M 449.0,462.0 L 449.0,467.0 L 442.0,470.0 L 441.0,468.0 Z M 453.0,459.0 L 460.0,459.0 L 461.0,461.0 L 459.0,464.0 L 456.0,464.0 Z M 591.0,456.0 L 593.0,457.0 L 592.0,461.0 L 589.0,460.0 Z M 441.0,455.0 L 444.0,457.0 L 442.0,462.0 L 438.0,460.0 Z M 449.0,448.0 L 455.0,455.0 L 453.0,458.0 L 448.0,456.0 L 450.0,454.0 L 447.0,452.0 Z M 592.0,446.0 L 595.0,447.0 L 593.0,452.0 L 590.0,450.0 Z M 456.0,446.0 L 459.0,446.0 L 460.0,450.0 L 462.0,448.0 L 465.0,449.0 L 461.0,456.0 L 458.0,455.0 L 458.0,452.0 L 455.0,449.0 Z M 449.0,440.0 L 450.0,442.0 L 445.0,445.0 L 444.0,443.0 Z M 456.0,442.0 L 460.0,437.0 L 465.0,443.0 L 463.0,444.0 L 460.0,441.0 L 460.0,443.0 L 457.0,444.0 Z M 518.0,434.0 L 535.0,435.0 L 546.0,441.0 L 555.0,452.0 L 559.0,464.0 L 559.0,479.0 L 553.0,494.0 L 543.0,504.0 L 532.0,509.0 L 516.0,509.0 L 506.0,504.0 L 496.0,495.0 L 490.0,481.0 L 490.0,463.0 L 496.0,449.0 L 506.0,439.0 Z M 470.0,434.0 L 472.0,435.0 L 471.0,438.0 L 468.0,437.0 Z M 586.0,433.0 L 587.0,436.0 L 584.0,438.0 L 583.0,436.0 Z M 448.0,436.0 L 449.0,433.0 L 453.0,434.0 L 450.0,437.0 Z M 463.0,432.0 L 466.0,431.0 L 467.0,434.0 L 465.0,435.0 Z M 473.0,426.0 L 475.0,427.0 L 474.0,430.0 L 471.0,429.0 Z M 461.0,427.0 L 458.0,430.0 L 454.0,429.0 L 455.0,427.0 Z M 579.0,423.0 L 581.0,424.0 L 580.0,428.0 L 577.0,427.0 Z M 444.0,422.0 L 447.0,423.0 L 445.0,429.0 L 443.0,428.0 Z M 571.0,421.0 L 574.0,418.0 L 576.0,419.0 L 574.0,422.0 Z M 464.0,417.0 L 468.0,416.0 L 469.0,419.0 L 466.0,420.0 Z M 453.0,417.0 L 456.0,416.0 L 458.0,419.0 L 456.0,420.0 Z M 436.0,415.0 L 440.0,414.0 L 441.0,417.0 L 439.0,418.0 Z M 543.0,414.0 L 548.0,414.0 L 551.0,418.0 L 547.0,420.0 Z M 536.0,413.0 L 539.0,414.0 L 538.0,418.0 L 534.0,417.0 Z M 527.0,413.0 L 529.0,414.0 L 528.0,417.0 L 525.0,416.0 Z M 444.0,414.0 L 447.0,413.0 L 448.0,416.0 L 446.0,417.0 Z M 502.0,413.0 L 506.0,412.0 L 507.0,415.0 L 504.0,416.0 Z M 558.0,412.0 L 563.0,412.0 L 561.0,416.0 L 565.0,417.0 L 564.0,419.0 L 568.0,421.0 L 567.0,423.0 L 564.0,424.0 L 558.0,419.0 Z M 454.0,412.0 L 458.0,411.0 L 459.0,413.0 L 455.0,414.0 Z M 466.0,410.0 L 468.0,411.0 L 467.0,414.0 L 464.0,413.0 Z M 497.0,409.0 L 500.0,408.0 L 501.0,411.0 L 498.0,412.0 Z M 453.0,407.0 L 454.0,410.0 L 448.0,413.0 L 447.0,411.0 Z M 548.0,406.0 L 553.0,411.0 L 552.0,413.0 L 549.0,413.0 L 546.0,410.0 Z M 489.0,406.0 L 490.0,408.0 L 483.0,413.0 L 482.0,411.0 Z M 469.0,406.0 L 471.0,407.0 L 470.0,411.0 L 467.0,410.0 Z M 551.0,408.0 L 553.0,405.0 L 560.0,405.0 L 554.0,409.0 Z M 515.0,405.0 L 519.0,405.0 L 520.0,408.0 L 516.0,409.0 Z M 535.0,406.0 L 540.0,403.0 L 540.0,407.0 L 543.0,407.0 L 544.0,409.0 L 539.0,410.0 Z M 478.0,404.0 L 481.0,403.0 L 482.0,406.0 L 479.0,407.0 Z M 565.0,403.0 L 568.0,402.0 L 570.0,405.0 L 566.0,407.0 Z M 461.0,402.0 L 462.0,404.0 L 458.0,406.0 L 457.0,404.0 Z M 444.0,402.0 L 445.0,404.0 L 441.0,406.0 L 440.0,404.0 Z M 526.0,400.0 L 529.0,401.0 L 527.0,405.0 L 524.0,404.0 Z M 513.0,398.0 L 516.0,400.0 L 515.0,403.0 L 511.0,401.0 Z M 534.0,398.0 L 538.0,397.0 L 539.0,400.0 L 536.0,401.0 Z M 527.0,396.0 L 530.0,394.0 L 532.0,397.0 L 528.0,398.0 Z M 457.0,394.0 L 459.0,397.0 L 453.0,404.0 L 450.0,404.0 L 449.0,401.0 L 455.0,394.0 Z M 465.0,392.0 L 469.0,398.0 L 468.0,401.0 L 463.0,396.0 Z M 445.0,391.0 L 449.0,393.0 L 447.0,398.0 L 444.0,395.0 Z M 530.0,391.0 L 533.0,390.0 L 534.0,393.0 L 531.0,394.0 Z M 465.0,386.0 L 467.0,387.0 L 466.0,391.0 L 463.0,390.0 Z M 447.0,385.0 L 451.0,388.0 L 449.0,392.0 L 445.0,389.0 Z M 533.0,382.0 L 550.0,380.0 L 566.0,383.0 L 592.0,397.0 L 604.0,410.0 L 613.0,426.0 L 617.0,450.0 L 614.0,450.0 L 599.0,422.0 L 583.0,405.0 L 560.0,391.0 Z M 455.0,378.0 L 459.0,379.0 L 457.0,383.0 L 458.0,386.0 L 456.0,388.0 L 461.0,392.0 L 460.0,394.0 L 455.0,392.0 L 450.0,386.0 Z M 468.0,376.0 L 470.0,377.0 L 469.0,380.0 L 466.0,379.0 Z M 460.0,376.0 L 463.0,375.0 L 465.0,379.0 L 461.0,380.0 Z M 441.0,375.0 L 445.0,378.0 L 450.0,378.0 L 445.0,382.0 L 444.0,386.0 L 440.0,384.0 Z M 447.0,371.0 L 449.0,369.0 L 453.0,369.0 L 456.0,373.0 L 454.0,375.0 L 452.0,373.0 L 448.0,375.0 Z M 439.0,369.0 L 441.0,370.0 L 440.0,373.0 L 437.0,372.0 Z M 460.0,370.0 L 463.0,368.0 L 468.0,372.0 L 464.0,373.0 Z M 458.0,361.0 L 459.0,364.0 L 455.0,366.0 L 454.0,363.0 Z M 444.0,360.0 L 447.0,362.0 L 445.0,366.0 L 442.0,364.0 Z M 462.0,359.0 L 464.0,358.0 L 466.0,362.0 L 464.0,363.0 Z M 443.0,358.0 L 445.0,356.0 L 448.0,357.0 L 447.0,360.0 L 444.0,360.0 Z M 452.0,354.0 L 454.0,353.0 L 456.0,356.0 L 453.0,357.0 Z M 463.0,350.0 L 466.0,349.0 L 467.0,352.0 L 464.0,353.0 Z M 449.0,346.0 L 451.0,345.0 L 457.0,352.0 L 453.0,353.0 L 449.0,349.0 Z M 452.0,340.0 L 456.0,339.0 L 457.0,341.0 L 453.0,342.0 Z M 453.0,335.0 L 456.0,334.0 L 457.0,337.0 L 454.0,339.0 Z M 464.0,307.0 L 474.0,316.0 L 451.0,317.0 L 441.0,325.0 L 436.0,334.0 L 424.0,403.0 L 422.0,401.0 L 421.0,347.0 L 425.0,328.0 L 440.0,310.0 L 449.0,306.0 Z M 672.0,292.0 L 654.0,298.0 L 641.0,310.0 L 635.0,323.0 L 633.0,341.0 L 641.0,356.0 L 651.0,366.0 L 664.0,372.0 L 685.0,373.0 L 700.0,368.0 L 713.0,357.0 L 720.0,343.0 L 721.0,328.0 L 715.0,311.0 L 707.0,302.0 L 689.0,293.0 Z M 659.0,322.0 L 661.0,323.0 L 660.0,326.0 L 657.0,325.0 Z M 654.0,316.0 L 670.0,305.0 L 681.0,304.0 L 692.0,307.0 L 707.0,322.0 L 709.0,328.0 L 707.0,341.0 L 703.0,340.0 L 698.0,327.0 L 684.0,316.0 L 674.0,314.0 L 656.0,318.0 Z" fill="#D35504" fill-rule="evenodd"/>
<path d="M 1354.0,266.0 L 1360.0,264.0 L 1361.0,266.0 L 1359.0,267.0 L 1363.0,273.0 L 1370.0,272.0 L 1363.0,271.0 L 1368.0,263.0 L 1363.0,266.0 L 1358.0,263.0 Z M 1122.0,258.0 L 1120.0,260.0 L 1108.0,260.0 L 1107.0,262.0 L 1113.0,260.0 L 1116.0,261.0 L 1118.0,259.0 L 1119.0,263.0 Z M 30.0,259.0 L 38.0,261.0 L 42.0,266.0 L 46.0,265.0 L 43.0,265.0 L 39.0,260.0 L 35.0,260.0 L 33.0,258.0 Z M 47.0,258.0 L 47.0,260.0 L 52.0,259.0 L 55.0,261.0 L 52.0,257.0 Z M 1398.0,255.0 L 1395.0,254.0 L 1392.0,257.0 L 1395.0,258.0 Z M 394.0,248.0 L 389.0,252.0 L 391.0,256.0 L 394.0,255.0 L 391.0,253.0 Z M 293.0,248.0 L 287.0,253.0 L 288.0,255.0 L 293.0,251.0 Z M 1103.0,247.0 L 1103.0,249.0 L 1106.0,250.0 L 1104.0,254.0 L 1106.0,256.0 L 1106.0,252.0 L 1109.0,249.0 Z M 384.0,246.0 L 382.0,247.0 L 383.0,250.0 L 381.0,253.0 L 383.0,251.0 L 385.0,253.0 Z M 1147.0,246.0 L 1144.0,245.0 L 1140.0,250.0 L 1136.0,249.0 L 1136.0,251.0 L 1142.0,254.0 L 1141.0,251.0 Z M 379.0,250.0 L 375.0,245.0 L 377.0,246.0 L 376.0,249.0 L 374.0,250.0 L 374.0,247.0 L 369.0,247.0 L 368.0,253.0 L 371.0,249.0 Z M 48.0,245.0 L 47.0,248.0 L 52.0,252.0 L 55.0,251.0 L 58.0,255.0 L 61.0,254.0 L 58.0,254.0 L 58.0,250.0 L 54.0,251.0 L 52.0,247.0 Z M 44.0,246.0 L 41.0,245.0 L 41.0,248.0 L 38.0,251.0 L 36.0,250.0 L 36.0,247.0 L 35.0,252.0 L 41.0,253.0 L 41.0,249.0 Z M 397.0,243.0 L 398.0,245.0 L 396.0,247.0 L 400.0,248.0 L 400.0,245.0 Z M 1306.0,247.0 L 1308.0,245.0 L 1314.0,245.0 L 1320.0,248.0 L 1326.0,248.0 L 1326.0,252.0 L 1328.0,254.0 L 1337.0,255.0 L 1339.0,258.0 L 1336.0,259.0 L 1336.0,261.0 L 1343.0,260.0 L 1345.0,265.0 L 1344.0,262.0 L 1348.0,260.0 L 1341.0,258.0 L 1339.0,255.0 L 1335.0,255.0 L 1331.0,250.0 L 1330.0,252.0 L 1333.0,254.0 L 1328.0,254.0 L 1326.0,252.0 L 1328.0,250.0 L 1328.0,246.0 L 1323.0,244.0 L 1325.0,246.0 L 1324.0,248.0 L 1321.0,246.0 L 1317.0,247.0 L 1315.0,244.0 L 1320.0,244.0 L 1314.0,242.0 L 1312.0,245.0 L 1308.0,245.0 Z M 1027.0,242.0 L 1025.0,244.0 L 1025.0,252.0 L 1027.0,252.0 L 1027.0,249.0 L 1029.0,248.0 L 1026.0,246.0 Z M 1410.0,233.0 L 1408.0,233.0 L 1408.0,239.0 L 1410.0,238.0 Z M 1095.0,233.0 L 1095.0,235.0 L 1098.0,235.0 L 1103.0,239.0 L 1101.0,235.0 Z M 375.0,236.0 L 375.0,240.0 L 380.0,238.0 L 383.0,242.0 L 385.0,241.0 L 385.0,238.0 L 384.0,241.0 L 380.0,238.0 L 380.0,235.0 L 385.0,233.0 L 379.0,233.0 Z M 650.0,231.0 L 646.0,232.0 L 644.0,236.0 L 646.0,237.0 Z M 285.0,229.0 L 281.0,235.0 L 278.0,234.0 L 281.0,237.0 L 279.0,239.0 L 280.0,242.0 L 284.0,235.0 Z M 40.0,229.0 L 38.0,233.0 L 42.0,234.0 L 44.0,239.0 L 44.0,232.0 Z M 1090.0,226.0 L 1094.0,229.0 L 1099.0,228.0 Z M 1107.0,224.0 L 1106.0,229.0 L 1109.0,230.0 L 1107.0,232.0 L 1110.0,237.0 Z M 1414.0,221.0 L 1411.0,222.0 L 1411.0,226.0 L 1408.0,228.0 L 1413.0,228.0 Z M 552.0,221.0 L 551.0,223.0 L 553.0,226.0 L 551.0,228.0 L 553.0,230.0 L 555.0,224.0 Z M 150.0,218.0 L 149.0,220.0 L 152.0,224.0 L 153.0,222.0 Z M 47.0,218.0 L 46.0,220.0 L 42.0,221.0 L 45.0,222.0 L 46.0,225.0 L 48.0,223.0 Z M 346.0,217.0 L 347.0,223.0 L 349.0,224.0 L 348.0,227.0 L 351.0,226.0 L 352.0,228.0 L 354.0,226.0 L 356.0,228.0 L 358.0,226.0 L 357.0,222.0 L 355.0,222.0 L 354.0,226.0 L 349.0,224.0 L 348.0,222.0 L 350.0,221.0 Z M 363.0,215.0 L 361.0,228.0 L 365.0,230.0 L 366.0,229.0 L 363.0,227.0 L 365.0,217.0 L 363.0,219.0 Z M 375.0,213.0 L 375.0,216.0 L 382.0,216.0 Z M 1414.0,212.0 L 1412.0,213.0 L 1413.0,217.0 L 1411.0,219.0 L 1415.0,216.0 Z M 1100.0,212.0 L 1098.0,215.0 L 1101.0,217.0 L 1099.0,223.0 L 1102.0,221.0 L 1102.0,225.0 L 1102.0,212.0 Z M 559.0,212.0 L 557.0,219.0 L 560.0,221.0 L 559.0,216.0 L 561.0,214.0 Z M 169.0,210.0 L 165.0,212.0 L 166.0,214.0 L 164.0,219.0 L 168.0,218.0 L 170.0,212.0 Z M 927.0,209.0 L 925.0,213.0 L 924.0,225.0 L 929.0,232.0 L 925.0,223.0 L 926.0,215.0 L 929.0,212.0 Z M 1231.0,207.0 L 1230.0,219.0 L 1223.0,225.0 L 1233.0,222.0 L 1233.0,219.0 L 1231.0,218.0 L 1231.0,212.0 L 1233.0,209.0 Z M 1249.0,205.0 L 1245.0,207.0 L 1247.0,208.0 L 1246.0,210.0 L 1244.0,209.0 L 1246.0,220.0 L 1251.0,218.0 L 1247.0,218.0 L 1248.0,209.0 L 1250.0,207.0 Z M 370.0,205.0 L 369.0,207.0 L 367.0,206.0 L 367.0,210.0 L 370.0,211.0 L 368.0,216.0 L 372.0,213.0 L 369.0,209.0 Z M 649.0,204.0 L 647.0,208.0 L 644.0,209.0 L 646.0,213.0 L 644.0,215.0 L 645.0,216.0 L 649.0,215.0 L 646.0,211.0 L 646.0,209.0 L 650.0,207.0 Z M 170.0,203.0 L 168.0,206.0 L 171.0,206.0 L 174.0,210.0 L 175.0,209.0 Z M 154.0,203.0 L 151.0,203.0 L 152.0,210.0 L 150.0,212.0 L 154.0,208.0 Z M 1400.0,202.0 L 1398.0,206.0 L 1402.0,211.0 L 1399.0,213.0 L 1404.0,216.0 L 1405.0,211.0 L 1402.0,209.0 L 1402.0,204.0 Z M 291.0,202.0 L 289.0,205.0 L 285.0,203.0 L 286.0,207.0 L 281.0,211.0 L 274.0,212.0 L 280.0,211.0 L 285.0,215.0 L 282.0,217.0 L 285.0,226.0 L 288.0,226.0 L 286.0,224.0 L 287.0,221.0 L 284.0,219.0 L 285.0,217.0 L 289.0,217.0 L 289.0,215.0 L 287.0,216.0 L 285.0,214.0 L 288.0,207.0 L 290.0,207.0 L 295.0,213.0 L 296.0,222.0 L 301.0,215.0 L 294.0,211.0 L 294.0,207.0 L 290.0,204.0 Z M 282.0,211.0 L 285.0,208.0 L 287.0,209.0 L 284.0,212.0 Z M 164.0,199.0 L 160.0,208.0 L 165.0,204.0 Z M 1408.0,198.0 L 1406.0,200.0 L 1406.0,206.0 L 1409.0,208.0 L 1414.0,207.0 L 1417.0,211.0 L 1417.0,207.0 L 1420.0,206.0 L 1415.0,204.0 L 1413.0,206.0 L 1410.0,205.0 L 1410.0,199.0 Z M 1409.0,198.0 L 1410.0,201.0 L 1407.0,203.0 L 1406.0,200.0 Z M 456.0,198.0 L 465.0,202.0 L 468.0,200.0 L 466.0,198.0 L 465.0,201.0 Z M 348.0,198.0 L 352.0,204.0 L 354.0,199.0 L 351.0,200.0 Z M 54.0,198.0 L 54.0,205.0 L 50.0,212.0 L 53.0,214.0 L 52.0,217.0 L 56.0,221.0 L 53.0,213.0 L 56.0,207.0 L 54.0,205.0 L 56.0,203.0 Z M 1016.0,197.0 L 1019.0,204.0 L 1021.0,204.0 L 1019.0,200.0 L 1020.0,197.0 Z M 540.0,197.0 L 540.0,199.0 L 545.0,200.0 L 545.0,197.0 Z M 1396.0,196.0 L 1389.0,198.0 L 1393.0,198.0 L 1391.0,200.0 L 1393.0,201.0 L 1392.0,206.0 L 1393.0,204.0 L 1395.0,206.0 L 1394.0,200.0 Z M 910.0,196.0 L 912.0,199.0 L 912.0,202.0 L 910.0,203.0 L 911.0,205.0 L 914.0,199.0 Z M 31.0,196.0 L 31.0,199.0 L 33.0,199.0 L 35.0,203.0 L 41.0,202.0 L 40.0,200.0 L 34.0,199.0 L 33.0,196.0 Z M 34.0,200.0 L 37.0,199.0 L 38.0,202.0 L 35.0,203.0 Z M 1375.0,198.0 L 1378.0,198.0 L 1376.0,200.0 L 1378.0,204.0 L 1388.0,208.0 L 1377.0,201.0 L 1378.0,199.0 L 1383.0,199.0 L 1381.0,197.0 L 1382.0,195.0 Z M 1247.0,193.0 L 1241.0,193.0 L 1243.0,194.0 L 1239.0,201.0 L 1241.0,206.0 L 1240.0,203.0 L 1244.0,200.0 L 1242.0,202.0 L 1240.0,200.0 L 1243.0,195.0 L 1245.0,198.0 L 1248.0,196.0 L 1250.0,201.0 L 1250.0,196.0 Z M 46.0,193.0 L 37.0,193.0 L 38.0,195.0 L 41.0,193.0 L 46.0,198.0 L 45.0,200.0 L 47.0,201.0 L 47.0,205.0 L 45.0,206.0 L 44.0,203.0 L 42.0,208.0 L 39.0,210.0 L 36.0,207.0 L 39.0,206.0 L 36.0,207.0 L 38.0,214.0 L 36.0,215.0 L 34.0,212.0 L 32.0,213.0 L 34.0,218.0 L 31.0,222.0 L 39.0,218.0 L 39.0,210.0 L 44.0,209.0 L 47.0,205.0 L 48.0,196.0 Z M 557.0,187.0 L 555.0,195.0 L 558.0,195.0 L 557.0,199.0 L 559.0,198.0 L 559.0,201.0 L 559.0,196.0 L 562.0,194.0 L 560.0,190.0 L 564.0,189.0 Z M 1357.0,186.0 L 1359.0,191.0 L 1366.0,190.0 L 1360.0,190.0 L 1359.0,186.0 Z M 1100.0,186.0 L 1096.0,189.0 L 1096.0,198.0 L 1098.0,200.0 L 1102.0,198.0 L 1098.0,196.0 Z M 1027.0,187.0 L 1025.0,185.0 L 1021.0,187.0 L 1022.0,189.0 Z M 360.0,185.0 L 358.0,188.0 L 361.0,192.0 L 362.0,187.0 Z M 25.0,185.0 L 31.0,192.0 L 28.0,184.0 Z M 1350.0,183.0 L 1350.0,188.0 L 1352.0,189.0 L 1353.0,183.0 Z M 1033.0,183.0 L 1031.0,183.0 L 1031.0,190.0 L 1026.0,193.0 L 1025.0,197.0 L 1027.0,196.0 L 1029.0,201.0 L 1028.0,196.0 L 1032.0,189.0 L 1036.0,189.0 L 1037.0,185.0 L 1034.0,185.0 Z M 753.0,182.0 L 751.0,182.0 L 751.0,187.0 L 749.0,190.0 L 751.0,192.0 L 749.0,193.0 L 751.0,192.0 L 751.0,188.0 L 754.0,184.0 Z M 1244.0,184.0 L 1245.0,186.0 L 1247.0,183.0 L 1251.0,184.0 L 1254.0,190.0 L 1256.0,190.0 L 1256.0,188.0 L 1253.0,187.0 L 1253.0,184.0 L 1249.0,181.0 L 1248.0,183.0 Z M 278.0,181.0 L 275.0,188.0 L 283.0,190.0 L 283.0,188.0 L 280.0,187.0 L 283.0,185.0 Z M 44.0,183.0 L 41.0,181.0 L 37.0,184.0 L 39.0,186.0 Z M 561.0,184.0 L 558.0,184.0 L 557.0,182.0 L 560.0,181.0 L 555.0,179.0 L 553.0,182.0 L 548.0,181.0 L 547.0,183.0 L 542.0,183.0 L 543.0,185.0 L 547.0,183.0 L 551.0,185.0 L 554.0,183.0 L 556.0,185.0 Z M 1338.0,177.0 L 1336.0,177.0 L 1337.0,181.0 L 1341.0,179.0 L 1342.0,182.0 L 1338.0,183.0 L 1335.0,186.0 L 1335.0,189.0 L 1338.0,185.0 L 1345.0,185.0 L 1345.0,182.0 Z M 1239.0,177.0 L 1236.0,182.0 L 1240.0,187.0 L 1240.0,184.0 L 1237.0,182.0 Z M 478.0,177.0 L 474.0,179.0 L 474.0,183.0 Z M 169.0,177.0 L 166.0,177.0 L 166.0,180.0 L 158.0,186.0 L 164.0,191.0 L 167.0,191.0 L 164.0,195.0 L 157.0,193.0 L 156.0,194.0 L 158.0,194.0 L 159.0,197.0 L 160.0,195.0 L 167.0,195.0 L 164.0,184.0 L 172.0,183.0 Z M 363.0,174.0 L 360.0,178.0 L 355.0,180.0 L 362.0,181.0 L 361.0,178.0 L 364.0,178.0 L 366.0,184.0 L 368.0,185.0 L 368.0,192.0 L 364.0,197.0 L 367.0,199.0 L 370.0,195.0 L 369.0,189.0 L 374.0,188.0 L 376.0,191.0 L 377.0,189.0 L 376.0,186.0 L 371.0,186.0 L 368.0,184.0 L 368.0,180.0 L 364.0,179.0 L 366.0,175.0 Z M 563.0,173.0 L 560.0,177.0 L 561.0,179.0 L 564.0,178.0 Z M 1249.0,172.0 L 1247.0,173.0 L 1247.0,178.0 L 1249.0,178.0 Z M 179.0,172.0 L 178.0,170.0 L 173.0,171.0 L 173.0,173.0 L 178.0,174.0 Z M 484.0,169.0 L 482.0,170.0 L 482.0,177.0 L 485.0,175.0 Z M 556.0,168.0 L 553.0,173.0 L 546.0,174.0 L 548.0,176.0 L 554.0,175.0 L 556.0,173.0 Z M 546.0,167.0 L 540.0,167.0 L 541.0,173.0 L 539.0,176.0 Z M 809.0,166.0 L 809.0,168.0 L 814.0,171.0 L 814.0,174.0 L 816.0,174.0 L 817.0,169.0 L 821.0,171.0 L 823.0,170.0 L 822.0,168.0 L 818.0,169.0 L 817.0,167.0 L 813.0,169.0 Z M 1023.0,163.0 L 1027.0,169.0 L 1028.0,177.0 L 1025.0,178.0 L 1022.0,175.0 L 1022.0,181.0 L 1028.0,183.0 L 1029.0,182.0 L 1027.0,183.0 L 1026.0,181.0 L 1030.0,175.0 L 1028.0,173.0 L 1027.0,166.0 L 1025.0,167.0 L 1025.0,164.0 Z M 162.0,162.0 L 164.0,165.0 L 162.0,168.0 L 164.0,170.0 L 164.0,174.0 L 166.0,174.0 L 164.0,168.0 L 168.0,164.0 Z M 43.0,163.0 L 38.0,162.0 L 41.0,168.0 L 32.0,170.0 L 31.0,172.0 L 33.0,175.0 L 43.0,167.0 Z M 1330.0,161.0 L 1326.0,167.0 L 1329.0,169.0 L 1328.0,171.0 L 1330.0,175.0 L 1333.0,176.0 L 1332.0,171.0 L 1331.0,173.0 L 1329.0,172.0 L 1330.0,167.0 L 1326.0,167.0 L 1327.0,164.0 L 1333.0,164.0 L 1333.0,162.0 Z M 1231.0,160.0 L 1231.0,162.0 L 1235.0,164.0 L 1237.0,171.0 L 1240.0,171.0 L 1238.0,173.0 L 1241.0,176.0 L 1236.0,163.0 Z M 1224.0,159.0 L 1216.0,161.0 L 1223.0,162.0 Z M 482.0,158.0 L 481.0,162.0 L 478.0,163.0 L 480.0,166.0 L 481.0,162.0 L 484.0,161.0 Z M 1324.0,157.0 L 1321.0,158.0 L 1321.0,163.0 L 1323.0,163.0 Z M 1246.0,157.0 L 1244.0,157.0 L 1243.0,161.0 L 1238.0,160.0 L 1239.0,163.0 L 1245.0,165.0 L 1244.0,171.0 L 1246.0,170.0 L 1247.0,164.0 Z M 814.0,157.0 L 813.0,162.0 L 821.0,162.0 L 816.0,161.0 Z M 271.0,157.0 L 271.0,163.0 L 274.0,163.0 L 274.0,158.0 Z M 54.0,157.0 L 52.0,158.0 L 52.0,163.0 L 48.0,170.0 L 47.0,177.0 L 39.0,173.0 L 38.0,177.0 L 28.0,179.0 L 39.0,179.0 L 41.0,176.0 L 48.0,181.0 L 46.0,187.0 L 50.0,192.0 L 50.0,195.0 L 54.0,194.0 L 56.0,187.0 L 52.0,192.0 L 49.0,179.0 L 51.0,178.0 L 55.0,184.0 L 57.0,184.0 L 55.0,180.0 L 50.0,177.0 L 50.0,169.0 L 54.0,165.0 Z M 467.0,156.0 L 466.0,157.0 L 468.0,156.0 L 470.0,158.0 L 469.0,160.0 L 467.0,159.0 L 469.0,163.0 L 473.0,166.0 L 470.0,169.0 L 470.0,172.0 L 473.0,173.0 L 473.0,168.0 L 475.0,166.0 L 472.0,158.0 Z M 1326.0,154.0 L 1333.0,157.0 L 1335.0,155.0 L 1335.0,153.0 Z M 1023.0,153.0 L 1019.0,157.0 L 1020.0,160.0 L 1024.0,155.0 Z M 1022.0,155.0 L 1023.0,157.0 L 1020.0,160.0 L 1019.0,157.0 Z M 358.0,153.0 L 360.0,155.0 L 359.0,158.0 L 366.0,164.0 L 366.0,168.0 L 368.0,169.0 L 366.0,162.0 L 361.0,159.0 L 361.0,153.0 Z M 1254.0,151.0 L 1251.0,163.0 L 1254.0,162.0 Z M 750.0,151.0 L 745.0,154.0 L 747.0,155.0 L 745.0,157.0 L 747.0,163.0 L 746.0,166.0 L 749.0,166.0 L 747.0,155.0 L 751.0,154.0 Z M 1225.0,150.0 L 1229.0,156.0 L 1236.0,156.0 L 1231.0,149.0 Z M 564.0,146.0 L 562.0,150.0 L 566.0,153.0 L 566.0,147.0 Z M 346.0,148.0 L 348.0,152.0 L 346.0,154.0 L 347.0,155.0 L 350.0,148.0 L 353.0,147.0 L 353.0,154.0 L 355.0,157.0 L 356.0,155.0 L 354.0,153.0 L 356.0,152.0 L 356.0,147.0 L 351.0,147.0 L 349.0,145.0 Z M 1344.0,142.0 L 1343.0,146.0 L 1339.0,147.0 L 1338.0,149.0 L 1340.0,152.0 L 1336.0,159.0 L 1338.0,163.0 L 1341.0,163.0 L 1338.0,161.0 L 1341.0,158.0 Z M 208.0,143.0 L 207.0,145.0 L 207.0,142.0 L 201.0,145.0 L 198.0,144.0 L 197.0,150.0 L 199.0,149.0 L 199.0,146.0 L 203.0,147.0 L 206.0,142.0 Z M 51.0,142.0 L 48.0,145.0 L 49.0,153.0 L 51.0,151.0 L 49.0,148.0 Z M 483.0,141.0 L 482.0,143.0 L 486.0,147.0 L 487.0,145.0 Z M 831.0,140.0 L 826.0,145.0 L 832.0,152.0 L 834.0,147.0 Z M 118.0,140.0 L 117.0,139.0 L 110.0,142.0 L 106.0,141.0 L 103.0,145.0 L 105.0,145.0 L 106.0,142.0 L 114.0,145.0 L 114.0,143.0 Z M 812.0,137.0 L 814.0,140.0 L 812.0,143.0 L 814.0,151.0 L 819.0,151.0 L 815.0,148.0 L 824.0,143.0 L 824.0,139.0 L 817.0,141.0 L 814.0,137.0 Z M 763.0,137.0 L 760.0,139.0 L 760.0,147.0 L 765.0,145.0 Z M 487.0,137.0 L 493.0,142.0 L 491.0,137.0 Z M 489.0,138.0 L 491.0,137.0 L 493.0,140.0 L 490.0,141.0 Z M 277.0,137.0 L 276.0,139.0 L 278.0,142.0 L 276.0,145.0 L 271.0,143.0 L 266.0,144.0 L 265.0,147.0 L 271.0,149.0 L 273.0,147.0 L 275.0,153.0 L 277.0,152.0 L 275.0,151.0 L 276.0,146.0 L 278.0,147.0 L 278.0,150.0 L 283.0,148.0 L 285.0,144.0 L 289.0,145.0 L 286.0,148.0 L 292.0,152.0 L 289.0,159.0 L 292.0,159.0 L 293.0,164.0 L 291.0,165.0 L 289.0,162.0 L 289.0,167.0 L 290.0,165.0 L 292.0,166.0 L 291.0,169.0 L 293.0,170.0 L 293.0,175.0 L 295.0,177.0 L 294.0,181.0 L 292.0,182.0 L 286.0,176.0 L 287.0,172.0 L 283.0,172.0 L 280.0,169.0 L 281.0,165.0 L 279.0,162.0 L 280.0,174.0 L 284.0,173.0 L 286.0,175.0 L 281.0,179.0 L 288.0,179.0 L 293.0,183.0 L 291.0,194.0 L 288.0,195.0 L 289.0,198.0 L 291.0,197.0 L 292.0,199.0 L 295.0,197.0 L 297.0,201.0 L 298.0,194.0 L 293.0,197.0 L 291.0,193.0 L 293.0,192.0 L 292.0,188.0 L 294.0,187.0 L 294.0,184.0 L 299.0,176.0 L 296.0,173.0 L 296.0,164.0 L 302.0,162.0 L 300.0,155.0 L 301.0,153.0 L 297.0,151.0 L 297.0,147.0 L 295.0,147.0 L 294.0,144.0 L 295.0,151.0 L 298.0,153.0 L 298.0,157.0 L 300.0,159.0 L 298.0,161.0 L 293.0,161.0 L 292.0,149.0 L 288.0,144.0 L 285.0,144.0 L 282.0,147.0 L 280.0,145.0 L 281.0,141.0 Z M 294.0,171.0 L 296.0,172.0 L 296.0,177.0 L 293.0,175.0 Z M 227.0,137.0 L 223.0,138.0 L 224.0,143.0 L 228.0,138.0 Z M 74.0,137.0 L 74.0,143.0 L 72.0,145.0 L 76.0,146.0 L 78.0,141.0 L 75.0,141.0 L 74.0,139.0 L 78.0,138.0 Z M 1025.0,136.0 L 1026.0,142.0 L 1027.0,140.0 L 1029.0,142.0 L 1031.0,136.0 Z M 867.0,139.0 L 863.0,137.0 L 865.0,139.0 L 862.0,140.0 L 858.0,136.0 L 856.0,139.0 L 853.0,139.0 L 853.0,146.0 L 854.0,147.0 L 856.0,145.0 L 855.0,141.0 L 858.0,138.0 L 866.0,141.0 Z M 590.0,136.0 L 585.0,139.0 L 585.0,141.0 L 588.0,142.0 L 587.0,144.0 Z M 298.0,140.0 L 291.0,135.0 L 284.0,141.0 L 289.0,138.0 L 294.0,141.0 Z M 59.0,138.0 L 62.0,142.0 L 67.0,140.0 L 70.0,143.0 L 68.0,138.0 L 61.0,139.0 L 60.0,137.0 L 62.0,135.0 Z M 55.0,134.0 L 53.0,137.0 L 54.0,142.0 L 56.0,142.0 Z M 753.0,132.0 L 751.0,132.0 L 752.0,138.0 L 750.0,143.0 L 754.0,139.0 L 757.0,139.0 L 754.0,134.0 L 751.0,134.0 Z M 630.0,133.0 L 625.0,132.0 L 619.0,139.0 L 621.0,140.0 L 622.0,136.0 Z M 257.0,139.0 L 253.0,137.0 L 253.0,133.0 L 251.0,132.0 L 249.0,135.0 L 245.0,133.0 L 240.0,136.0 L 241.0,139.0 L 239.0,141.0 L 244.0,138.0 L 245.0,134.0 L 247.0,136.0 L 253.0,136.0 L 254.0,144.0 L 256.0,143.0 Z M 1339.0,131.0 L 1335.0,134.0 L 1334.0,140.0 L 1337.0,139.0 L 1337.0,134.0 Z M 382.0,131.0 L 381.0,133.0 L 378.0,133.0 L 381.0,147.0 L 380.0,151.0 L 382.0,151.0 L 381.0,146.0 L 383.0,143.0 L 383.0,138.0 L 385.0,137.0 L 385.0,134.0 Z M 204.0,131.0 L 197.0,133.0 L 197.0,139.0 L 201.0,142.0 L 201.0,140.0 L 198.0,139.0 L 198.0,135.0 L 204.0,133.0 Z M 845.0,130.0 L 842.0,130.0 L 837.0,134.0 L 836.0,141.0 L 838.0,143.0 L 840.0,135.0 L 842.0,133.0 L 846.0,133.0 Z M 83.0,133.0 L 84.0,136.0 L 82.0,139.0 L 84.0,139.0 L 84.0,136.0 L 87.0,135.0 L 89.0,144.0 L 90.0,138.0 L 94.0,133.0 L 98.0,135.0 L 98.0,140.0 L 94.0,143.0 L 98.0,143.0 L 98.0,139.0 L 101.0,136.0 L 100.0,133.0 L 94.0,130.0 L 86.0,130.0 Z M 578.0,131.0 L 580.0,133.0 L 586.0,133.0 L 580.0,128.0 L 581.0,130.0 Z M 564.0,128.0 L 562.0,130.0 L 564.0,132.0 L 561.0,133.0 L 558.0,141.0 L 556.0,140.0 L 556.0,136.0 L 554.0,134.0 L 553.0,139.0 L 555.0,136.0 L 556.0,140.0 L 554.0,141.0 L 553.0,145.0 L 556.0,145.0 L 554.0,144.0 L 555.0,142.0 L 561.0,142.0 L 563.0,137.0 L 571.0,137.0 L 568.0,133.0 L 564.0,133.0 Z M 363.0,129.0 L 362.0,128.0 L 363.0,130.0 L 361.0,131.0 L 360.0,129.0 L 356.0,128.0 L 354.0,131.0 L 351.0,131.0 L 353.0,136.0 L 350.0,138.0 L 348.0,136.0 L 349.0,142.0 L 350.0,138.0 L 352.0,137.0 L 356.0,142.0 L 361.0,142.0 L 364.0,138.0 L 362.0,137.0 Z M 1035.0,127.0 L 1033.0,132.0 L 1037.0,134.0 L 1036.0,144.0 L 1033.0,152.0 L 1034.0,154.0 L 1031.0,155.0 L 1030.0,153.0 L 1033.0,155.0 L 1037.0,150.0 L 1037.0,147.0 L 1041.0,146.0 L 1037.0,143.0 L 1040.0,139.0 Z M 276.0,126.0 L 279.0,132.0 L 278.0,134.0 L 282.0,136.0 L 280.0,133.0 L 284.0,132.0 L 281.0,128.0 L 286.0,127.0 Z M 277.0,128.0 L 279.0,127.0 L 281.0,130.0 L 278.0,131.0 Z M 263.0,126.0 L 269.0,135.0 L 274.0,133.0 L 274.0,131.0 Z M 819.0,125.0 L 819.0,132.0 L 822.0,130.0 L 822.0,127.0 Z M 1350.0,124.0 L 1350.0,128.0 L 1346.0,130.0 L 1343.0,135.0 L 1345.0,138.0 L 1347.0,137.0 L 1346.0,132.0 L 1351.0,131.0 Z M 111.0,123.0 L 112.0,127.0 L 113.0,125.0 L 117.0,128.0 L 121.0,126.0 L 117.0,122.0 L 114.0,124.0 Z M 584.0,124.0 L 586.0,128.0 L 594.0,125.0 L 597.0,127.0 L 595.0,131.0 L 598.0,131.0 L 598.0,122.0 L 589.0,125.0 L 589.0,122.0 L 586.0,121.0 Z M 745.0,126.0 L 748.0,128.0 L 756.0,127.0 L 758.0,122.0 L 755.0,120.0 L 754.0,124.0 L 751.0,125.0 L 750.0,118.0 L 748.0,120.0 L 748.0,125.0 Z M 31.0,118.0 L 28.0,121.0 L 29.0,125.0 L 24.0,127.0 L 25.0,133.0 L 22.0,139.0 L 22.0,144.0 L 24.0,144.0 L 24.0,142.0 L 29.0,138.0 L 25.0,132.0 L 27.0,130.0 L 24.0,128.0 L 26.0,126.0 L 29.0,126.0 L 30.0,128.0 L 29.0,129.0 L 30.0,127.0 L 28.0,121.0 Z M 1354.0,116.0 L 1356.0,120.0 L 1360.0,120.0 L 1361.0,122.0 L 1367.0,118.0 L 1377.0,118.0 L 1356.0,118.0 Z M 822.0,116.0 L 823.0,119.0 L 829.0,118.0 L 828.0,116.0 Z M 259.0,116.0 L 263.0,116.0 L 263.0,122.0 L 271.0,126.0 L 268.0,123.0 L 270.0,120.0 L 281.0,124.0 L 279.0,122.0 L 275.0,123.0 L 270.0,116.0 L 269.0,119.0 L 265.0,116.0 Z M 840.0,116.0 L 847.0,119.0 L 845.0,124.0 L 843.0,121.0 L 841.0,124.0 L 843.0,127.0 L 842.0,125.0 L 846.0,124.0 L 849.0,130.0 L 854.0,133.0 L 851.0,129.0 L 852.0,127.0 L 856.0,126.0 L 856.0,131.0 L 861.0,130.0 L 858.0,125.0 L 847.0,125.0 L 845.0,115.0 L 845.0,118.0 Z M 64.0,114.0 L 62.0,116.0 L 66.0,118.0 L 64.0,124.0 L 67.0,126.0 L 68.0,130.0 L 66.0,134.0 L 76.0,134.0 L 76.0,132.0 L 75.0,134.0 L 73.0,133.0 L 74.0,130.0 L 72.0,127.0 L 74.0,126.0 L 72.0,122.0 Z M 360.0,115.0 L 361.0,123.0 L 364.0,123.0 L 367.0,128.0 L 371.0,127.0 L 366.0,122.0 L 367.0,117.0 L 370.0,117.0 L 376.0,126.0 L 379.0,127.0 L 378.0,125.0 L 380.0,124.0 L 382.0,128.0 L 378.0,118.0 L 375.0,118.0 L 370.0,113.0 L 368.0,116.0 L 366.0,115.0 L 365.0,119.0 L 363.0,118.0 L 362.0,114.0 Z M 609.0,112.0 L 603.0,119.0 L 606.0,125.0 L 609.0,124.0 L 605.0,121.0 L 605.0,117.0 L 612.0,114.0 Z M 494.0,116.0 L 488.0,115.0 L 486.0,112.0 L 483.0,112.0 L 478.0,117.0 L 476.0,116.0 L 476.0,113.0 L 472.0,114.0 L 476.0,119.0 L 476.0,125.0 L 470.0,125.0 L 468.0,120.0 L 468.0,126.0 L 462.0,128.0 L 465.0,131.0 L 464.0,134.0 L 466.0,136.0 L 466.0,142.0 L 468.0,141.0 L 468.0,131.0 L 471.0,133.0 L 474.0,131.0 L 476.0,132.0 L 471.0,138.0 L 473.0,138.0 L 477.0,133.0 L 481.0,136.0 L 483.0,130.0 L 479.0,127.0 L 479.0,123.0 L 486.0,118.0 L 496.0,121.0 Z M 476.0,120.0 L 477.0,117.0 L 481.0,118.0 L 479.0,121.0 Z M 486.0,116.0 L 492.0,115.0 L 494.0,118.0 L 488.0,119.0 Z M 482.0,114.0 L 485.0,115.0 L 483.0,120.0 L 481.0,119.0 Z M 60.0,113.0 L 52.0,114.0 L 51.0,112.0 L 44.0,112.0 L 44.0,115.0 L 39.0,115.0 L 38.0,113.0 L 36.0,116.0 L 33.0,115.0 L 35.0,120.0 L 32.0,125.0 L 34.0,123.0 L 39.0,123.0 L 41.0,126.0 L 35.0,129.0 L 40.0,135.0 L 39.0,137.0 L 35.0,137.0 L 31.0,132.0 L 31.0,139.0 L 33.0,140.0 L 31.0,143.0 L 33.0,141.0 L 38.0,143.0 L 39.0,141.0 L 36.0,141.0 L 36.0,138.0 L 41.0,137.0 L 43.0,139.0 L 45.0,137.0 L 42.0,132.0 L 48.0,128.0 L 46.0,124.0 L 48.0,123.0 L 49.0,125.0 L 51.0,123.0 L 46.0,122.0 L 46.0,119.0 L 53.0,119.0 L 53.0,122.0 L 56.0,119.0 L 60.0,119.0 L 61.0,121.0 L 61.0,119.0 L 56.0,117.0 L 57.0,115.0 L 60.0,115.0 Z M 37.0,115.0 L 43.0,115.0 L 46.0,118.0 L 45.0,127.0 L 41.0,121.0 L 37.0,120.0 Z M 46.0,117.0 L 49.0,114.0 L 52.0,115.0 L 51.0,119.0 L 47.0,119.0 Z M 820.0,114.0 L 816.0,111.0 L 816.0,114.0 L 812.0,116.0 L 818.0,117.0 Z M 245.0,111.0 L 247.0,115.0 L 243.0,117.0 L 243.0,119.0 L 246.0,116.0 L 255.0,118.0 Z M 1130.0,112.0 L 1123.0,110.0 L 1121.0,114.0 L 1114.0,115.0 L 1108.0,125.0 L 1111.0,120.0 L 1113.0,121.0 Z M 549.0,109.0 L 547.0,109.0 L 545.0,113.0 L 539.0,115.0 L 544.0,117.0 L 545.0,113.0 Z M 463.0,110.0 L 463.0,112.0 L 469.0,108.0 L 476.0,108.0 L 479.0,112.0 L 477.0,108.0 L 465.0,108.0 Z M 128.0,110.0 L 135.0,110.0 L 137.0,108.0 L 129.0,108.0 Z M 574.0,111.0 L 575.0,114.0 L 572.0,117.0 L 563.0,120.0 L 559.0,115.0 L 565.0,108.0 L 561.0,109.0 L 560.0,107.0 L 555.0,109.0 L 557.0,112.0 L 557.0,117.0 L 554.0,117.0 L 554.0,113.0 L 552.0,118.0 L 548.0,120.0 L 546.0,127.0 L 548.0,132.0 L 543.0,135.0 L 538.0,130.0 L 540.0,136.0 L 538.0,138.0 L 539.0,145.0 L 549.0,152.0 L 548.0,158.0 L 544.0,164.0 L 547.0,165.0 L 545.0,163.0 L 546.0,161.0 L 553.0,165.0 L 555.0,163.0 L 566.0,163.0 L 553.0,163.0 L 550.0,160.0 L 550.0,151.0 L 553.0,150.0 L 555.0,153.0 L 555.0,150.0 L 550.0,148.0 L 546.0,149.0 L 541.0,145.0 L 540.0,139.0 L 544.0,139.0 L 546.0,144.0 L 547.0,143.0 L 544.0,136.0 L 549.0,136.0 L 552.0,131.0 L 555.0,130.0 L 555.0,127.0 L 557.0,129.0 L 562.0,127.0 L 557.0,126.0 L 559.0,122.0 L 561.0,124.0 L 569.0,123.0 L 571.0,128.0 L 575.0,128.0 L 575.0,132.0 L 576.0,128.0 L 572.0,124.0 L 576.0,121.0 L 581.0,122.0 L 581.0,124.0 L 580.0,117.0 L 577.0,116.0 Z M 554.0,122.0 L 555.0,127.0 L 551.0,131.0 L 549.0,125.0 Z M 573.0,116.0 L 576.0,115.0 L 577.0,118.0 L 574.0,119.0 Z M 826.0,107.0 L 826.0,112.0 L 832.0,108.0 L 835.0,108.0 L 837.0,111.0 L 833.0,111.0 L 838.0,113.0 L 836.0,119.0 L 832.0,120.0 L 830.0,123.0 L 834.0,124.0 L 838.0,122.0 L 837.0,116.0 L 841.0,111.0 L 838.0,107.0 L 837.0,109.0 L 835.0,106.0 Z M 1139.0,109.0 L 1140.0,107.0 L 1144.0,108.0 L 1145.0,106.0 L 1161.0,107.0 L 1163.0,105.0 L 1165.0,108.0 L 1167.0,106.0 L 1147.0,105.0 L 1141.0,106.0 Z M 897.0,108.0 L 908.0,108.0 L 907.0,106.0 L 902.0,105.0 Z M 625.0,103.0 L 625.0,105.0 L 637.0,104.0 L 638.0,106.0 L 644.0,108.0 L 640.0,102.0 Z M 719.0,102.0 L 721.0,104.0 L 730.0,103.0 L 731.0,105.0 L 738.0,107.0 L 738.0,105.0 L 735.0,105.0 L 737.0,102.0 L 733.0,100.0 L 731.0,102.0 L 724.0,102.0 L 723.0,100.0 L 722.0,102.0 Z M 983.0,99.0 L 984.0,101.0 L 985.0,99.0 L 989.0,100.0 L 990.0,98.0 L 999.0,98.0 L 1000.0,100.0 L 1004.0,99.0 L 1006.0,101.0 L 1006.0,99.0 L 995.0,97.0 Z M 1284.0,22.0 L 1294.0,25.0 L 1291.0,20.0 L 1285.0,20.0 Z" fill="#98400F" fill-rule="evenodd"/>
<path d="M 957.0,547.0 L 964.0,545.0 L 968.0,548.0 L 968.0,546.0 L 967.0,548.0 L 965.0,547.0 L 965.0,543.0 L 961.0,543.0 Z M 995.0,545.0 L 994.0,540.0 L 988.0,542.0 L 992.0,542.0 Z M 944.0,534.0 L 946.0,537.0 L 949.0,535.0 L 961.0,537.0 L 958.0,534.0 L 951.0,535.0 L 948.0,531.0 Z M 790.0,517.0 L 789.0,525.0 L 793.0,526.0 L 791.0,524.0 L 792.0,520.0 Z M 472.0,517.0 L 469.0,516.0 L 467.0,520.0 L 470.0,520.0 Z M 475.0,511.0 L 478.0,514.0 L 480.0,513.0 L 479.0,510.0 Z M 585.0,504.0 L 585.0,506.0 L 589.0,508.0 L 590.0,512.0 L 592.0,507.0 L 590.0,505.0 L 586.0,507.0 L 585.0,505.0 L 587.0,504.0 Z M 911.0,502.0 L 907.0,504.0 L 912.0,510.0 L 911.0,508.0 L 914.0,505.0 Z M 689.0,491.0 L 686.0,493.0 L 681.0,492.0 L 680.0,494.0 L 683.0,497.0 L 684.0,494.0 L 688.0,493.0 Z M 680.0,493.0 L 683.0,492.0 L 684.0,495.0 L 682.0,496.0 Z M 459.0,491.0 L 459.0,495.0 L 462.0,498.0 L 460.0,502.0 L 464.0,502.0 L 462.0,499.0 L 463.0,496.0 L 460.0,495.0 Z M 449.0,485.0 L 451.0,494.0 L 456.0,497.0 L 453.0,494.0 L 451.0,485.0 Z M 788.0,483.0 L 786.0,489.0 L 787.0,495.0 L 783.0,496.0 L 781.0,501.0 L 788.0,494.0 L 788.0,487.0 L 791.0,485.0 Z M 798.0,475.0 L 800.0,481.0 L 801.0,479.0 L 803.0,480.0 L 801.0,476.0 Z M 447.0,475.0 L 441.0,479.0 L 437.0,485.0 L 438.0,487.0 L 443.0,483.0 L 443.0,480.0 L 448.0,477.0 Z M 787.0,473.0 L 782.0,473.0 L 782.0,478.0 L 779.0,481.0 L 784.0,481.0 L 784.0,477.0 L 782.0,475.0 Z M 912.0,472.0 L 910.0,475.0 L 914.0,478.0 L 915.0,475.0 Z M 906.0,471.0 L 901.0,474.0 L 901.0,477.0 L 904.0,480.0 L 903.0,482.0 L 901.0,481.0 L 901.0,483.0 L 904.0,481.0 L 904.0,478.0 L 907.0,477.0 L 904.0,475.0 Z M 902.0,473.0 L 904.0,474.0 L 903.0,478.0 L 901.0,477.0 Z M 793.0,468.0 L 792.0,470.0 L 797.0,473.0 L 797.0,471.0 Z M 442.0,456.0 L 439.0,459.0 L 440.0,461.0 L 443.0,460.0 Z M 892.0,451.0 L 895.0,457.0 L 900.0,456.0 L 902.0,458.0 L 900.0,455.0 L 895.0,454.0 L 894.0,451.0 Z M 456.0,447.0 L 459.0,455.0 L 461.0,455.0 L 461.0,452.0 L 464.0,451.0 L 463.0,448.0 L 460.0,451.0 L 459.0,447.0 Z M 895.0,444.0 L 901.0,446.0 L 900.0,441.0 L 898.0,441.0 L 898.0,445.0 Z M 918.0,438.0 L 917.0,440.0 L 920.0,442.0 L 921.0,438.0 Z M 917.0,439.0 L 920.0,438.0 L 921.0,441.0 L 919.0,442.0 Z M 459.0,438.0 L 457.0,443.0 L 460.0,441.0 L 464.0,443.0 Z M 676.0,429.0 L 672.0,439.0 L 674.0,443.0 L 674.0,438.0 L 677.0,434.0 L 675.0,433.0 L 677.0,431.0 Z M 689.0,423.0 L 685.0,425.0 L 682.0,422.0 L 684.0,430.0 L 680.0,436.0 L 683.0,438.0 L 679.0,445.0 L 680.0,443.0 L 682.0,445.0 L 682.0,441.0 L 686.0,438.0 L 683.0,435.0 L 683.0,432.0 L 686.0,431.0 Z M 921.0,417.0 L 919.0,417.0 L 918.0,420.0 L 920.0,426.0 L 916.0,428.0 L 917.0,434.0 L 916.0,428.0 L 923.0,426.0 L 920.0,423.0 Z M 813.0,407.0 L 806.0,411.0 L 806.0,416.0 L 808.0,419.0 L 809.0,417.0 L 807.0,414.0 Z M 1021.0,405.0 L 1021.0,413.0 L 1027.0,416.0 L 1022.0,411.0 L 1022.0,407.0 L 1024.0,405.0 Z M 562.0,406.0 L 571.0,405.0 L 566.0,403.0 Z M 1022.0,394.0 L 1016.0,397.0 L 1019.0,401.0 Z M 826.0,394.0 L 817.0,400.0 L 821.0,402.0 L 821.0,399.0 L 824.0,398.0 Z M 458.0,379.0 L 455.0,379.0 L 454.0,383.0 L 451.0,384.0 L 450.0,387.0 L 446.0,387.0 L 446.0,389.0 L 447.0,386.0 L 450.0,388.0 L 449.0,391.0 L 445.0,392.0 L 445.0,395.0 L 446.0,393.0 L 448.0,394.0 L 446.0,397.0 L 449.0,395.0 L 448.0,392.0 L 451.0,386.0 L 458.0,393.0 L 454.0,396.0 L 458.0,396.0 L 460.0,393.0 L 456.0,389.0 Z M 455.0,379.0 L 458.0,380.0 L 456.0,387.0 L 453.0,386.0 Z M 448.0,377.0 L 445.0,379.0 L 441.0,376.0 L 442.0,386.0 L 440.0,387.0 L 443.0,386.0 L 444.0,382.0 L 449.0,379.0 Z M 457.0,359.0 L 454.0,364.0 L 458.0,368.0 Z M 441.0,356.0 L 444.0,359.0 L 443.0,364.0 L 445.0,365.0 L 447.0,357.0 L 443.0,358.0 Z M 450.0,346.0 L 453.0,356.0 L 456.0,356.0 L 453.0,353.0 L 453.0,348.0 Z M 1315.0,245.0 L 1327.0,247.0 L 1322.0,244.0 Z M 1313.0,241.0 L 1305.0,243.0 L 1305.0,246.0 L 1303.0,244.0 L 1300.0,249.0 L 1305.0,247.0 L 1309.0,241.0 L 1312.0,241.0 L 1312.0,244.0 Z M 1418.0,206.0 L 1417.0,210.0 L 1422.0,213.0 L 1423.0,211.0 L 1421.0,211.0 Z M 36.0,189.0 L 38.0,193.0 L 45.0,193.0 L 43.0,190.0 L 38.0,191.0 Z M 291.0,133.0 L 289.0,133.0 L 286.0,137.0 L 282.0,137.0 L 281.0,140.0 L 283.0,141.0 L 287.0,136.0 L 290.0,136.0 L 288.0,134.0 Z M 51.0,120.0 L 45.0,121.0 L 48.0,122.0 L 47.0,127.0 L 48.0,123.0 L 52.0,122.0 Z M 61.0,116.0 L 61.0,123.0 L 68.0,124.0 L 67.0,122.0 L 64.0,122.0 L 65.0,118.0 Z M 835.0,109.0 L 836.0,111.0 L 838.0,110.0 L 842.0,113.0 L 841.0,115.0 L 839.0,114.0 L 837.0,118.0 L 842.0,115.0 L 846.0,121.0 L 843.0,126.0 L 847.0,127.0 L 848.0,126.0 L 845.0,124.0 L 846.0,119.0 L 844.0,114.0 Z" fill="#D6742E" fill-rule="evenodd"/>
<path d="M 903.0,488.0 L 901.0,490.0 L 907.0,498.0 L 907.0,492.0 Z M 780.0,375.0 L 783.0,380.0 L 787.0,376.0 L 784.0,378.0 Z M 269.0,121.0 L 271.0,124.0 L 279.0,125.0 L 278.0,123.0 Z M 355.0,117.0 L 352.0,119.0 L 348.0,118.0 L 346.0,121.0 L 349.0,122.0 Z M 1355.0,116.0 L 1380.0,116.0 L 1390.0,119.0 L 1394.0,118.0 L 1394.0,120.0 L 1402.0,122.0 L 1414.0,129.0 L 1424.0,139.0 L 1420.0,126.0 L 1406.0,115.0 L 1393.0,111.0 L 1377.0,110.0 L 1360.0,114.0 L 1372.0,114.0 L 1372.0,116.0 Z M 476.0,110.0 L 466.0,110.0 L 459.0,114.0 L 455.0,120.0 L 454.0,128.0 L 465.0,115.0 Z M 95.0,126.0 L 116.0,119.0 L 141.0,118.0 L 142.0,119.0 L 140.0,120.0 L 148.0,120.0 L 148.0,122.0 L 157.0,126.0 L 159.0,125.0 L 159.0,127.0 L 161.0,126.0 L 161.0,128.0 L 162.0,127.0 L 166.0,131.0 L 165.0,128.0 L 162.0,127.0 L 163.0,125.0 L 155.0,117.0 L 135.0,110.0 L 125.0,110.0 L 111.0,114.0 Z M 879.0,116.0 L 888.0,114.0 L 907.0,116.0 L 920.0,121.0 L 933.0,130.0 L 929.0,121.0 L 922.0,114.0 L 911.0,109.0 L 892.0,109.0 Z M 1183.0,117.0 L 1172.0,110.0 L 1160.0,107.0 L 1141.0,108.0 L 1126.0,113.0 L 1098.0,133.0 L 1090.0,144.0 L 1082.0,164.0 L 1105.0,137.0 L 1131.0,120.0 L 1150.0,115.0 L 1166.0,115.0 L 1184.0,120.0 Z M 565.0,107.0 L 566.0,110.0 L 571.0,110.0 Z M 608.0,112.0 L 630.0,112.0 L 649.0,120.0 L 650.0,119.0 L 656.0,125.0 L 658.0,122.0 L 647.0,110.0 L 634.0,105.0 L 620.0,106.0 Z M 748.0,117.0 L 741.0,109.0 L 735.0,106.0 L 718.0,104.0 L 700.0,110.0 L 689.0,118.0 L 681.0,128.0 L 683.0,130.0 L 694.0,121.0 L 695.0,122.0 L 703.0,117.0 L 718.0,113.0 L 741.0,114.0 L 742.0,116.0 Z M 947.0,129.0 L 956.0,121.0 L 985.0,109.0 L 1006.0,110.0 L 1029.0,123.0 L 1025.0,114.0 L 1017.0,106.0 L 1001.0,100.0 L 986.0,100.0 L 964.0,109.0 Z M 1267.0,23.0 L 1277.0,25.0 L 1290.0,32.0 L 1304.0,47.0 L 1311.0,65.0 L 1310.0,44.0 L 1306.0,36.0 L 1298.0,28.0 L 1291.0,24.0 L 1289.0,25.0 L 1288.0,23.0 L 1285.0,24.0 L 1285.0,22.0 L 1278.0,21.0 Z" fill="#E5A56E" fill-rule="evenodd"/>
<path d="M 535.0,381.0 L 557.0,387.0 L 582.0,402.0 L 600.0,421.0 L 614.0,447.0 L 608.0,420.0 L 592.0,399.0 L 565.0,384.0 Z M 970.0,376.0 L 1006.0,382.0 L 1030.0,393.0 L 1054.0,415.0 L 1066.0,437.0 L 1066.0,428.0 L 1060.0,411.0 L 1052.0,400.0 L 1036.0,387.0 L 1008.0,376.0 Z M 788.0,320.0 L 795.0,323.0 L 801.0,329.0 L 806.0,338.0 L 810.0,357.0 L 811.0,381.0 L 815.0,365.0 L 816.0,351.0 L 813.0,334.0 L 802.0,322.0 Z M 463.0,308.0 L 448.0,307.0 L 437.0,312.0 L 426.0,327.0 L 422.0,347.0 L 423.0,396.0 L 428.0,352.0 L 433.0,333.0 L 445.0,317.0 L 457.0,312.0 L 471.0,314.0 Z M 656.0,314.0 L 670.0,311.0 L 683.0,313.0 L 690.0,317.0 L 699.0,326.0 L 704.0,339.0 L 706.0,327.0 L 702.0,317.0 L 695.0,310.0 L 689.0,307.0 L 673.0,305.0 L 662.0,309.0 Z" fill="#F9D1A2" fill-rule="evenodd"/>
</svg>